<svg xmlns="http://www.w3.org/2000/svg" version="1.1" xmlns:xlink="http://www.w3.org/1999/xlink" xmlns:svgjs="http://svgjs.com/svgjs" width="1440" height="1000" preserveAspectRatio="none" viewBox="0 0 1440 1000"><g mask="url(&quot;#SvgjsMask1000&quot;)" fill="none"><rect width="1440" height="1000" x="0" y="0" fill="#0e2a47"></rect><path d="M-85.36 646.96L-85.36 646.96" stroke="#132e65" stroke-width="1.5"></path><path d="M-85.36 646.96L80.34 662.7" stroke="#132e65" stroke-width="1.5"></path><path d="M-85.36 646.96L-102.86 821.09" stroke="#132e65" stroke-width="1.5"></path><path d="M-85.36 646.96L107.47 838.16" stroke="#132e65" stroke-width="1.5"></path><path d="M-102.86 821.09L-102.86 821.09" stroke="#132e65" stroke-width="1.5"></path><path d="M-102.86 821.09L-103.27 993.67" stroke="#132e65" stroke-width="1.5"></path><path d="M-102.86 821.09L107.47 838.16" stroke="#132e65" stroke-width="1.5"></path><path d="M-103.27 993.67L-103.27 993.67" stroke="#132e65" stroke-width="1.5"></path><path d="M-103.27 993.67L-71.24 1132.03" stroke="#132e65" stroke-width="1.5"></path><path d="M-103.27 993.67L82.59 1002.54" stroke="#132e65" stroke-width="1.5"></path><path d="M-103.27 993.67L107.47 838.16" stroke="#132e65" stroke-width="1.5"></path><path d="M-103.27 993.67L-85.36 646.96" stroke="#132e65" stroke-width="1.5"></path><path d="M-71.24 1132.03L-71.24 1132.03" stroke="#132e65" stroke-width="1.5"></path><path d="M-71.24 1132.03L82.59 1002.54" stroke="#132e65" stroke-width="1.5"></path><path d="M-71.24 1132.03L-102.86 821.09" stroke="#132e65" stroke-width="1.5"></path><path d="M-71.24 1132.03L260.12 1116.6" stroke="#132e65" stroke-width="1.5"></path><path d="M-71.24 1132.03L107.47 838.16" stroke="#132e65" stroke-width="1.5"></path><path d="M80.34 662.7L80.34 662.7" stroke="#132e65" stroke-width="1.5"></path><path d="M80.34 662.7L236.44 683.69" stroke="#132e65" stroke-width="1.5"></path><path d="M80.34 662.7L107.47 838.16" stroke="#132e65" stroke-width="1.5"></path><path d="M80.34 662.7L243.73 810.34" stroke="#132e65" stroke-width="1.5"></path><path d="M80.34 662.7L-102.86 821.09" stroke="#132e65" stroke-width="1.5"></path><path d="M80.34 662.7L370.47 692.8" stroke="#132e65" stroke-width="1.5"></path><path d="M107.47 838.16L107.47 838.16" stroke="#132e65" stroke-width="1.5"></path><path d="M107.47 838.16L243.73 810.34" stroke="#132e65" stroke-width="1.5"></path><path d="M107.47 838.16L82.59 1002.54" stroke="#132e65" stroke-width="1.5"></path><path d="M82.59 1002.54L82.59 1002.54" stroke="#132e65" stroke-width="1.5"></path><path d="M82.59 1002.54L260.12 1116.6" stroke="#132e65" stroke-width="1.5"></path><path d="M236.44 683.69L236.44 683.69" stroke="#132e65" stroke-width="1.5"></path><path d="M236.44 683.69L243.73 810.34" stroke="#132e65" stroke-width="1.5"></path><path d="M243.73 810.34L243.73 810.34" stroke="#132e65" stroke-width="1.5"></path><path d="M243.73 810.34L355.14 790.25" stroke="#132e65" stroke-width="1.5"></path><path d="M243.73 810.34L370.47 692.8" stroke="#132e65" stroke-width="1.5"></path><path d="M260.12 1116.6L260.12 1116.6" stroke="#132e65" stroke-width="1.5"></path><path d="M260.12 1116.6L403.84 1153.81" stroke="#132e65" stroke-width="1.5"></path><path d="M370.47 692.8L370.47 692.8" stroke="#132e65" stroke-width="1.5"></path><path d="M370.47 692.8L355.14 790.25" stroke="#132e65" stroke-width="1.5"></path><path d="M355.14 790.25L355.14 790.25" stroke="#132e65" stroke-width="1.5"></path><path d="M355.14 790.25L236.44 683.69" stroke="#132e65" stroke-width="1.5"></path><path d="M355.14 790.25L527.45 847.56" stroke="#132e65" stroke-width="1.5"></path><path d="M342.55 987.03L342.55 987.03" stroke="#132e65" stroke-width="1.5"></path><path d="M342.55 987.03L260.12 1116.6" stroke="#132e65" stroke-width="1.5"></path><path d="M342.55 987.03L403.84 1153.81" stroke="#132e65" stroke-width="1.5"></path><path d="M342.55 987.03L520.79 977.62" stroke="#132e65" stroke-width="1.5"></path><path d="M342.55 987.03L355.14 790.25" stroke="#132e65" stroke-width="1.5"></path><path d="M342.55 987.03L243.73 810.34" stroke="#132e65" stroke-width="1.5"></path><path d="M342.55 987.03L531.76 1112.77" stroke="#132e65" stroke-width="1.5"></path><path d="M403.84 1153.81L403.84 1153.81" stroke="#132e65" stroke-width="1.5"></path><path d="M403.84 1153.81L531.76 1112.77" stroke="#132e65" stroke-width="1.5"></path><path d="M403.84 1153.81L520.79 977.62" stroke="#132e65" stroke-width="1.5"></path><path d="M403.84 1153.81L688.7 1106.95" stroke="#132e65" stroke-width="1.5"></path><path d="M519.77 542.87L519.77 542.87" stroke="#132e65" stroke-width="1.5"></path><path d="M519.77 542.87L521.2 670.45" stroke="#132e65" stroke-width="1.5"></path><path d="M519.77 542.87L670.26 524.66" stroke="#132e65" stroke-width="1.5"></path><path d="M519.77 542.87L370.47 692.8" stroke="#132e65" stroke-width="1.5"></path><path d="M519.77 542.87L676.56 690.38" stroke="#132e65" stroke-width="1.5"></path><path d="M521.2 670.45L521.2 670.45" stroke="#132e65" stroke-width="1.5"></path><path d="M521.2 670.45L370.47 692.8" stroke="#132e65" stroke-width="1.5"></path><path d="M521.2 670.45L676.56 690.38" stroke="#132e65" stroke-width="1.5"></path><path d="M527.45 847.56L527.45 847.56" stroke="#132e65" stroke-width="1.5"></path><path d="M527.45 847.56L654.89 846.65" stroke="#132e65" stroke-width="1.5"></path><path d="M527.45 847.56L520.79 977.62" stroke="#132e65" stroke-width="1.5"></path><path d="M527.45 847.56L521.2 670.45" stroke="#132e65" stroke-width="1.5"></path><path d="M520.79 977.62L520.79 977.62" stroke="#132e65" stroke-width="1.5"></path><path d="M520.79 977.62L531.76 1112.77" stroke="#132e65" stroke-width="1.5"></path><path d="M531.76 1112.77L531.76 1112.77" stroke="#132e65" stroke-width="1.5"></path><path d="M706.92 364.41L706.92 364.41" stroke="#132e65" stroke-width="1.5"></path><path d="M706.92 364.41L817.8 338.47" stroke="#132e65" stroke-width="1.5"></path><path d="M670.26 524.66L670.26 524.66" stroke="#132e65" stroke-width="1.5"></path><path d="M670.26 524.66L805.89 543.06" stroke="#132e65" stroke-width="1.5"></path><path d="M670.26 524.66L706.92 364.41" stroke="#132e65" stroke-width="1.5"></path><path d="M670.26 524.66L676.56 690.38" stroke="#132e65" stroke-width="1.5"></path><path d="M670.26 524.66L809.02 670.8" stroke="#132e65" stroke-width="1.5"></path><path d="M676.56 690.38L676.56 690.38" stroke="#132e65" stroke-width="1.5"></path><path d="M676.56 690.38L809.02 670.8" stroke="#132e65" stroke-width="1.5"></path><path d="M676.56 690.38L654.89 846.65" stroke="#132e65" stroke-width="1.5"></path><path d="M654.89 846.65L654.89 846.65" stroke="#132e65" stroke-width="1.5"></path><path d="M703.51 979.83L703.51 979.83" stroke="#132e65" stroke-width="1.5"></path><path d="M703.51 979.83L800.82 974.64" stroke="#132e65" stroke-width="1.5"></path><path d="M703.51 979.83L688.7 1106.95" stroke="#132e65" stroke-width="1.5"></path><path d="M703.51 979.83L654.89 846.65" stroke="#132e65" stroke-width="1.5"></path><path d="M703.51 979.83L787.64 846.89" stroke="#132e65" stroke-width="1.5"></path><path d="M688.7 1106.95L688.7 1106.95" stroke="#132e65" stroke-width="1.5"></path><path d="M688.7 1106.95L811.76 1123.41" stroke="#132e65" stroke-width="1.5"></path><path d="M688.7 1106.95L531.76 1112.77" stroke="#132e65" stroke-width="1.5"></path><path d="M830.59 189.24L830.59 189.24" stroke="#132e65" stroke-width="1.5"></path><path d="M830.59 189.24L957 211.31" stroke="#132e65" stroke-width="1.5"></path><path d="M830.59 189.24L817.8 338.47" stroke="#132e65" stroke-width="1.5"></path><path d="M830.59 189.24L967.58 40.49" stroke="#132e65" stroke-width="1.5"></path><path d="M830.59 189.24L706.92 364.41" stroke="#132e65" stroke-width="1.5"></path><path d="M830.59 189.24L1000.09 355.64" stroke="#132e65" stroke-width="1.5"></path><path d="M830.59 189.24L972.66 -46.8" stroke="#132e65" stroke-width="1.5"></path><path d="M817.8 338.47L817.8 338.47" stroke="#132e65" stroke-width="1.5"></path><path d="M817.8 338.47L1000.09 355.64" stroke="#132e65" stroke-width="1.5"></path><path d="M817.8 338.47L957 211.31" stroke="#132e65" stroke-width="1.5"></path><path d="M817.8 338.47L805.89 543.06" stroke="#132e65" stroke-width="1.5"></path><path d="M805.89 543.06L805.89 543.06" stroke="#132e65" stroke-width="1.5"></path><path d="M805.89 543.06L809.02 670.8" stroke="#132e65" stroke-width="1.5"></path><path d="M805.89 543.06L950.9 559.46" stroke="#132e65" stroke-width="1.5"></path><path d="M805.89 543.06L676.56 690.38" stroke="#132e65" stroke-width="1.5"></path><path d="M805.89 543.06L706.92 364.41" stroke="#132e65" stroke-width="1.5"></path><path d="M809.02 670.8L809.02 670.8" stroke="#132e65" stroke-width="1.5"></path><path d="M809.02 670.8L787.64 846.89" stroke="#132e65" stroke-width="1.5"></path><path d="M809.02 670.8L950.9 559.46" stroke="#132e65" stroke-width="1.5"></path><path d="M787.64 846.89L787.64 846.89" stroke="#132e65" stroke-width="1.5"></path><path d="M787.64 846.89L800.82 974.64" stroke="#132e65" stroke-width="1.5"></path><path d="M787.64 846.89L654.89 846.65" stroke="#132e65" stroke-width="1.5"></path><path d="M787.64 846.89L960.81 791.6" stroke="#132e65" stroke-width="1.5"></path><path d="M787.64 846.89L676.56 690.38" stroke="#132e65" stroke-width="1.5"></path><path d="M800.82 974.64L800.82 974.64" stroke="#132e65" stroke-width="1.5"></path><path d="M811.76 1123.41L811.76 1123.41" stroke="#132e65" stroke-width="1.5"></path><path d="M811.76 1123.41L960.41 1129.71" stroke="#132e65" stroke-width="1.5"></path><path d="M811.76 1123.41L800.82 974.64" stroke="#132e65" stroke-width="1.5"></path><path d="M811.76 1123.41L703.51 979.83" stroke="#132e65" stroke-width="1.5"></path><path d="M811.76 1123.41L787.64 846.89" stroke="#132e65" stroke-width="1.5"></path><path d="M811.76 1123.41L531.76 1112.77" stroke="#132e65" stroke-width="1.5"></path><path d="M972.66 -46.8L972.66 -46.8" stroke="#132e65" stroke-width="1.5"></path><path d="M972.66 -46.8L967.58 40.49" stroke="#132e65" stroke-width="1.5"></path><path d="M972.66 -46.8L1088.61 -44.01" stroke="#132e65" stroke-width="1.5"></path><path d="M972.66 -46.8L957 211.31" stroke="#132e65" stroke-width="1.5"></path><path d="M972.66 -46.8L1262.66 37.97" stroke="#132e65" stroke-width="1.5"></path><path d="M967.58 40.49L967.58 40.49" stroke="#132e65" stroke-width="1.5"></path><path d="M967.58 40.49L1088.61 -44.01" stroke="#132e65" stroke-width="1.5"></path><path d="M967.58 40.49L957 211.31" stroke="#132e65" stroke-width="1.5"></path><path d="M957 211.31L957 211.31" stroke="#132e65" stroke-width="1.5"></path><path d="M957 211.31L1000.09 355.64" stroke="#132e65" stroke-width="1.5"></path><path d="M957 211.31L1122.65 245.01" stroke="#132e65" stroke-width="1.5"></path><path d="M957 211.31L1094.31 409.21" stroke="#132e65" stroke-width="1.5"></path><path d="M1000.09 355.64L1000.09 355.64" stroke="#132e65" stroke-width="1.5"></path><path d="M1000.09 355.64L1094.31 409.21" stroke="#132e65" stroke-width="1.5"></path><path d="M1000.09 355.64L1122.65 245.01" stroke="#132e65" stroke-width="1.5"></path><path d="M1000.09 355.64L1109.28 519.34" stroke="#132e65" stroke-width="1.5"></path><path d="M1000.09 355.64L950.9 559.46" stroke="#132e65" stroke-width="1.5"></path><path d="M950.9 559.46L950.9 559.46" stroke="#132e65" stroke-width="1.5"></path><path d="M950.9 559.46L1109.28 519.34" stroke="#132e65" stroke-width="1.5"></path><path d="M950.9 559.46L1105.05 668.08" stroke="#132e65" stroke-width="1.5"></path><path d="M960.81 791.6L960.81 791.6" stroke="#132e65" stroke-width="1.5"></path><path d="M960.81 791.6L1112.34 826" stroke="#132e65" stroke-width="1.5"></path><path d="M960.81 791.6L1105.05 668.08" stroke="#132e65" stroke-width="1.5"></path><path d="M960.41 1129.71L960.41 1129.71" stroke="#132e65" stroke-width="1.5"></path><path d="M960.41 1129.71L1124.77 1134.75" stroke="#132e65" stroke-width="1.5"></path><path d="M960.41 1129.71L1098.17 975.11" stroke="#132e65" stroke-width="1.5"></path><path d="M960.41 1129.71L800.82 974.64" stroke="#132e65" stroke-width="1.5"></path><path d="M960.41 1129.71L688.7 1106.95" stroke="#132e65" stroke-width="1.5"></path><path d="M960.41 1129.71L703.51 979.83" stroke="#132e65" stroke-width="1.5"></path><path d="M1088.61 -44.01L1088.61 -44.01" stroke="#132e65" stroke-width="1.5"></path><path d="M1088.61 -44.01L1280.43 -52.28" stroke="#132e65" stroke-width="1.5"></path><path d="M1088.61 -44.01L1262.66 37.97" stroke="#132e65" stroke-width="1.5"></path><path d="M1088.61 -44.01L957 211.31" stroke="#132e65" stroke-width="1.5"></path><path d="M1122.65 245.01L1122.65 245.01" stroke="#132e65" stroke-width="1.5"></path><path d="M1122.65 245.01L1284.17 248.77" stroke="#132e65" stroke-width="1.5"></path><path d="M1122.65 245.01L1094.31 409.21" stroke="#132e65" stroke-width="1.5"></path><path d="M1122.65 245.01L1288.25 374.84" stroke="#132e65" stroke-width="1.5"></path><path d="M1094.31 409.21L1094.31 409.21" stroke="#132e65" stroke-width="1.5"></path><path d="M1094.31 409.21L1109.28 519.34" stroke="#132e65" stroke-width="1.5"></path><path d="M1094.31 409.21L1265.33 501.43" stroke="#132e65" stroke-width="1.5"></path><path d="M1094.31 409.21L1288.25 374.84" stroke="#132e65" stroke-width="1.5"></path><path d="M1109.28 519.34L1109.28 519.34" stroke="#132e65" stroke-width="1.5"></path><path d="M1109.28 519.34L1105.05 668.08" stroke="#132e65" stroke-width="1.5"></path><path d="M1109.28 519.34L1265.33 501.43" stroke="#132e65" stroke-width="1.5"></path><path d="M1109.28 519.34L1288.25 374.84" stroke="#132e65" stroke-width="1.5"></path><path d="M1105.05 668.08L1105.05 668.08" stroke="#132e65" stroke-width="1.5"></path><path d="M1105.05 668.08L1112.34 826" stroke="#132e65" stroke-width="1.5"></path><path d="M1105.05 668.08L1275.86 686.75" stroke="#132e65" stroke-width="1.5"></path><path d="M1105.05 668.08L1252.2 814.28" stroke="#132e65" stroke-width="1.5"></path><path d="M1112.34 826L1112.34 826" stroke="#132e65" stroke-width="1.5"></path><path d="M1112.34 826L1252.2 814.28" stroke="#132e65" stroke-width="1.5"></path><path d="M1112.34 826L1098.17 975.11" stroke="#132e65" stroke-width="1.5"></path><path d="M1098.17 975.11L1098.17 975.11" stroke="#132e65" stroke-width="1.5"></path><path d="M1098.17 975.11L1124.77 1134.75" stroke="#132e65" stroke-width="1.5"></path><path d="M1098.17 975.11L1261.11 966.99" stroke="#132e65" stroke-width="1.5"></path><path d="M1098.17 975.11L1252.2 814.28" stroke="#132e65" stroke-width="1.5"></path><path d="M1098.17 975.11L960.81 791.6" stroke="#132e65" stroke-width="1.5"></path><path d="M1124.77 1134.75L1124.77 1134.75" stroke="#132e65" stroke-width="1.5"></path><path d="M1124.77 1134.75L1288.72 1113.08" stroke="#132e65" stroke-width="1.5"></path><path d="M1280.43 -52.28L1280.43 -52.28" stroke="#132e65" stroke-width="1.5"></path><path d="M1280.43 -52.28L1262.66 37.97" stroke="#132e65" stroke-width="1.5"></path><path d="M1280.43 -52.28L1388.74 -43.28" stroke="#132e65" stroke-width="1.5"></path><path d="M1262.66 37.97L1262.66 37.97" stroke="#132e65" stroke-width="1.5"></path><path d="M1262.66 37.97L1388.74 -43.28" stroke="#132e65" stroke-width="1.5"></path><path d="M1284.17 248.77L1284.17 248.77" stroke="#132e65" stroke-width="1.5"></path><path d="M1284.17 248.77L1288.25 374.84" stroke="#132e65" stroke-width="1.5"></path><path d="M1288.25 374.84L1288.25 374.84" stroke="#132e65" stroke-width="1.5"></path><path d="M1288.25 374.84L1265.33 501.43" stroke="#132e65" stroke-width="1.5"></path><path d="M1288.25 374.84L1433.04 406.07" stroke="#132e65" stroke-width="1.5"></path><path d="M1288.25 374.84L1390.87 530.39" stroke="#132e65" stroke-width="1.5"></path><path d="M1265.33 501.43L1265.33 501.43" stroke="#132e65" stroke-width="1.5"></path><path d="M1265.33 501.43L1390.87 530.39" stroke="#132e65" stroke-width="1.5"></path><path d="M1265.33 501.43L1275.86 686.75" stroke="#132e65" stroke-width="1.5"></path><path d="M1275.86 686.75L1275.86 686.75" stroke="#132e65" stroke-width="1.5"></path><path d="M1275.86 686.75L1252.2 814.28" stroke="#132e65" stroke-width="1.5"></path><path d="M1275.86 686.75L1436.1 704.4" stroke="#132e65" stroke-width="1.5"></path><path d="M1252.2 814.28L1252.2 814.28" stroke="#132e65" stroke-width="1.5"></path><path d="M1252.2 814.28L1261.11 966.99" stroke="#132e65" stroke-width="1.5"></path><path d="M1261.11 966.99L1261.11 966.99" stroke="#132e65" stroke-width="1.5"></path><path d="M1261.11 966.99L1397.92 974.95" stroke="#132e65" stroke-width="1.5"></path><path d="M1261.11 966.99L1288.72 1113.08" stroke="#132e65" stroke-width="1.5"></path><path d="M1261.11 966.99L1112.34 826" stroke="#132e65" stroke-width="1.5"></path><path d="M1261.11 966.99L1124.77 1134.75" stroke="#132e65" stroke-width="1.5"></path><path d="M1288.72 1113.08L1288.72 1113.08" stroke="#132e65" stroke-width="1.5"></path><path d="M1288.72 1113.08L1452.24 1147.75" stroke="#132e65" stroke-width="1.5"></path><path d="M1288.72 1113.08L1397.92 974.95" stroke="#132e65" stroke-width="1.5"></path><path d="M1288.72 1113.08L1098.17 975.11" stroke="#132e65" stroke-width="1.5"></path><path d="M1288.72 1113.08L1580.51 1119.47" stroke="#132e65" stroke-width="1.5"></path><path d="M1388.74 -43.28L1388.74 -43.28" stroke="#132e65" stroke-width="1.5"></path><path d="M1433.04 406.07L1433.04 406.07" stroke="#132e65" stroke-width="1.5"></path><path d="M1433.04 406.07L1390.87 530.39" stroke="#132e65" stroke-width="1.5"></path><path d="M1433.04 406.07L1597.08 377.06" stroke="#132e65" stroke-width="1.5"></path><path d="M1433.04 406.07L1265.33 501.43" stroke="#132e65" stroke-width="1.5"></path><path d="M1433.04 406.07L1583.8 553.58" stroke="#132e65" stroke-width="1.5"></path><path d="M1390.87 530.39L1390.87 530.39" stroke="#132e65" stroke-width="1.5"></path><path d="M1390.87 530.39L1436.1 704.4" stroke="#132e65" stroke-width="1.5"></path><path d="M1436.1 704.4L1436.1 704.4" stroke="#132e65" stroke-width="1.5"></path><path d="M1436.1 704.4L1457.48 849.08" stroke="#132e65" stroke-width="1.5"></path><path d="M1457.48 849.08L1457.48 849.08" stroke="#132e65" stroke-width="1.5"></path><path d="M1457.48 849.08L1581.65 823.17" stroke="#132e65" stroke-width="1.5"></path><path d="M1457.48 849.08L1397.92 974.95" stroke="#132e65" stroke-width="1.5"></path><path d="M1457.48 849.08L1608.87 710.39" stroke="#132e65" stroke-width="1.5"></path><path d="M1397.92 974.95L1397.92 974.95" stroke="#132e65" stroke-width="1.5"></path><path d="M1397.92 974.95L1452.24 1147.75" stroke="#132e65" stroke-width="1.5"></path><path d="M1397.92 974.95L1252.2 814.28" stroke="#132e65" stroke-width="1.5"></path><path d="M1397.92 974.95L1580.51 1119.47" stroke="#132e65" stroke-width="1.5"></path><path d="M1452.24 1147.75L1452.24 1147.75" stroke="#132e65" stroke-width="1.5"></path><path d="M1452.24 1147.75L1580.51 1119.47" stroke="#132e65" stroke-width="1.5"></path><path d="M1600.62 103.89L1600.62 103.89" stroke="#132e65" stroke-width="1.5"></path><path d="M1600.62 103.89L1611.26 234.81" stroke="#132e65" stroke-width="1.5"></path><path d="M1600.62 103.89L1388.74 -43.28" stroke="#132e65" stroke-width="1.5"></path><path d="M1600.62 103.89L1597.08 377.06" stroke="#132e65" stroke-width="1.5"></path><path d="M1611.26 234.81L1611.26 234.81" stroke="#132e65" stroke-width="1.5"></path><path d="M1611.26 234.81L1597.08 377.06" stroke="#132e65" stroke-width="1.5"></path><path d="M1611.26 234.81L1433.04 406.07" stroke="#132e65" stroke-width="1.5"></path><path d="M1611.26 234.81L1583.8 553.58" stroke="#132e65" stroke-width="1.5"></path><path d="M1611.26 234.81L1284.17 248.77" stroke="#132e65" stroke-width="1.5"></path><path d="M1597.08 377.06L1597.08 377.06" stroke="#132e65" stroke-width="1.5"></path><path d="M1597.08 377.06L1583.8 553.58" stroke="#132e65" stroke-width="1.5"></path><path d="M1597.08 377.06L1390.87 530.39" stroke="#132e65" stroke-width="1.5"></path><path d="M1583.8 553.58L1583.8 553.58" stroke="#132e65" stroke-width="1.5"></path><path d="M1583.8 553.58L1608.87 710.39" stroke="#132e65" stroke-width="1.5"></path><path d="M1583.8 553.58L1390.87 530.39" stroke="#132e65" stroke-width="1.5"></path><path d="M1583.8 553.58L1436.1 704.4" stroke="#132e65" stroke-width="1.5"></path><path d="M1608.87 710.39L1608.87 710.39" stroke="#132e65" stroke-width="1.5"></path><path d="M1608.87 710.39L1581.65 823.17" stroke="#132e65" stroke-width="1.5"></path><path d="M1608.87 710.39L1436.1 704.4" stroke="#132e65" stroke-width="1.5"></path><path d="M1581.65 823.17L1581.65 823.17" stroke="#132e65" stroke-width="1.5"></path><path d="M1581.65 823.17L1436.1 704.4" stroke="#132e65" stroke-width="1.5"></path><path d="M1581.65 823.17L1397.92 974.95" stroke="#132e65" stroke-width="1.5"></path><path d="M1581.65 823.17L1583.8 553.58" stroke="#132e65" stroke-width="1.5"></path><path d="M1581.65 823.17L1580.51 1119.47" stroke="#132e65" stroke-width="1.5"></path><path d="M1580.51 1119.47L1580.51 1119.47" stroke="#132e65" stroke-width="1.5"></path><circle r="5" cx="-85.36" cy="646.96" fill="#132e65"></circle><circle r="5" cx="-102.86" cy="821.09" fill="#132e65"></circle><circle r="5" cx="-103.27" cy="993.67" fill="#132e65"></circle><circle r="5" cx="-71.24" cy="1132.03" fill="#132e65"></circle><circle r="5" cx="80.34" cy="662.7" fill="#132e65"></circle><circle r="5" cx="107.47" cy="838.16" fill="#132e65"></circle><circle r="5" cx="82.59" cy="1002.54" fill="#132e65"></circle><circle r="5" cx="236.44" cy="683.69" fill="#132e65"></circle><circle r="5" cx="243.73" cy="810.34" fill="#132e65"></circle><circle r="5" cx="260.12" cy="1116.6" fill="#132e65"></circle><circle r="5" cx="370.47" cy="692.8" fill="#132e65"></circle><circle r="5" cx="355.14" cy="790.25" fill="#132e65"></circle><circle r="5" cx="342.55" cy="987.03" fill="#132e65"></circle><circle r="5" cx="403.84" cy="1153.81" fill="#132e65"></circle><circle r="5" cx="519.77" cy="542.87" fill="#132e65"></circle><circle r="5" cx="521.2" cy="670.45" fill="#132e65"></circle><circle r="5" cx="527.45" cy="847.56" fill="#132e65"></circle><circle r="5" cx="520.79" cy="977.62" fill="#132e65"></circle><circle r="5" cx="531.76" cy="1112.77" fill="#132e65"></circle><circle r="5" cx="706.92" cy="364.41" fill="#132e65"></circle><circle r="5" cx="670.26" cy="524.66" fill="#132e65"></circle><circle r="5" cx="676.56" cy="690.38" fill="#132e65"></circle><circle r="5" cx="654.89" cy="846.65" fill="#132e65"></circle><circle r="5" cx="703.51" cy="979.83" fill="#132e65"></circle><circle r="5" cx="688.7" cy="1106.95" fill="#132e65"></circle><circle r="5" cx="830.59" cy="189.24" fill="#132e65"></circle><circle r="5" cx="817.8" cy="338.47" fill="#132e65"></circle><circle r="5" cx="805.89" cy="543.06" fill="#132e65"></circle><circle r="5" cx="809.02" cy="670.8" fill="#132e65"></circle><circle r="5" cx="787.64" cy="846.89" fill="#132e65"></circle><circle r="5" cx="800.82" cy="974.64" fill="#132e65"></circle><circle r="5" cx="811.76" cy="1123.41" fill="#132e65"></circle><circle r="5" cx="972.66" cy="-46.8" fill="#132e65"></circle><circle r="5" cx="967.58" cy="40.49" fill="#132e65"></circle><circle r="5" cx="957" cy="211.31" fill="#132e65"></circle><circle r="5" cx="1000.09" cy="355.64" fill="#132e65"></circle><circle r="5" cx="950.9" cy="559.46" fill="#132e65"></circle><circle r="5" cx="960.81" cy="791.6" fill="#132e65"></circle><circle r="5" cx="960.41" cy="1129.71" fill="#132e65"></circle><circle r="5" cx="1088.61" cy="-44.01" fill="#132e65"></circle><circle r="5" cx="1122.65" cy="245.01" fill="#132e65"></circle><circle r="5" cx="1094.31" cy="409.21" fill="#132e65"></circle><circle r="5" cx="1109.28" cy="519.34" fill="#132e65"></circle><circle r="5" cx="1105.05" cy="668.08" fill="#132e65"></circle><circle r="5" cx="1112.34" cy="826" fill="#132e65"></circle><circle r="5" cx="1098.17" cy="975.11" fill="#132e65"></circle><circle r="5" cx="1124.77" cy="1134.75" fill="#132e65"></circle><circle r="5" cx="1280.43" cy="-52.28" fill="#132e65"></circle><circle r="5" cx="1262.66" cy="37.97" fill="#132e65"></circle><circle r="5" cx="1284.17" cy="248.77" fill="#132e65"></circle><circle r="5" cx="1288.25" cy="374.84" fill="#132e65"></circle><circle r="5" cx="1265.33" cy="501.43" fill="#132e65"></circle><circle r="5" cx="1275.86" cy="686.75" fill="#132e65"></circle><circle r="5" cx="1252.2" cy="814.28" fill="#132e65"></circle><circle r="5" cx="1261.11" cy="966.99" fill="#132e65"></circle><circle r="5" cx="1288.72" cy="1113.08" fill="#132e65"></circle><circle r="5" cx="1388.74" cy="-43.28" fill="#132e65"></circle><circle r="5" cx="1433.04" cy="406.07" fill="#132e65"></circle><circle r="5" cx="1390.87" cy="530.39" fill="#132e65"></circle><circle r="5" cx="1436.1" cy="704.4" fill="#132e65"></circle><circle r="5" cx="1457.48" cy="849.08" fill="#132e65"></circle><circle r="5" cx="1397.92" cy="974.95" fill="#132e65"></circle><circle r="5" cx="1452.24" cy="1147.75" fill="#132e65"></circle><circle r="5" cx="1600.62" cy="103.89" fill="#132e65"></circle><circle r="5" cx="1611.26" cy="234.81" fill="#132e65"></circle><circle r="5" cx="1597.08" cy="377.06" fill="#132e65"></circle><circle r="5" cx="1583.8" cy="553.58" fill="#132e65"></circle><circle r="5" cx="1608.87" cy="710.39" fill="#132e65"></circle><circle r="5" cx="1581.65" cy="823.17" fill="#132e65"></circle><circle r="5" cx="1580.51" cy="1119.47" fill="#132e65"></circle><path d="M198.85 961.37L198.85 961.37" stroke="hsl(228.5, 77.2%, 51.5%)" stroke-width="1.5"></path><path d="M198.85 961.37L235.23 846.36" stroke="hsl(228.5, 77.2%, 51.5%)" stroke-width="1.5"></path><path d="M198.85 961.37L39.75 961.66" stroke="hsl(228.5, 77.2%, 51.5%)" stroke-width="1.5"></path><path d="M198.85 961.37L104.16 797.55" stroke="hsl(228.5, 77.2%, 51.5%)" stroke-width="1.5"></path><path d="M198.85 961.37L248.88 1149.45" stroke="hsl(228.5, 77.2%, 51.5%)" stroke-width="1.5"></path><path d="M198.85 961.37L397.2 979.19" stroke="hsl(228.5, 77.2%, 51.5%)" stroke-width="1.5"></path><path d="M399.62 1155.68L399.62 1155.68" stroke="hsl(228.5, 77.2%, 51.5%)" stroke-width="1.5"></path><path d="M399.62 1155.68L515.33 1149.27" stroke="hsl(228.5, 77.2%, 51.5%)" stroke-width="1.5"></path><path d="M399.62 1155.68L248.88 1149.45" stroke="hsl(228.5, 77.2%, 51.5%)" stroke-width="1.5"></path><path d="M399.62 1155.68L397.2 979.19" stroke="hsl(228.5, 77.2%, 51.5%)" stroke-width="1.5"></path><path d="M399.62 1155.68L531.19 985.56" stroke="hsl(228.5, 77.2%, 51.5%)" stroke-width="1.5"></path><path d="M515.33 1149.27L515.33 1149.27" stroke="hsl(228.5, 77.2%, 51.5%)" stroke-width="1.5"></path><path d="M515.33 1149.27L531.19 985.56" stroke="hsl(228.5, 77.2%, 51.5%)" stroke-width="1.5"></path><path d="M658.34 675.26L658.34 675.26" stroke="hsl(228.5, 77.2%, 51.5%)" stroke-width="1.5"></path><path d="M658.34 675.26L650.97 841.38" stroke="hsl(228.5, 77.2%, 51.5%)" stroke-width="1.5"></path><path d="M658.34 675.26L828.34 638.73" stroke="hsl(228.5, 77.2%, 51.5%)" stroke-width="1.5"></path><path d="M806.87 859.94L806.87 859.94" stroke="hsl(228.5, 77.2%, 51.5%)" stroke-width="1.5"></path><path d="M806.87 859.94L826.86 947.78" stroke="hsl(228.5, 77.2%, 51.5%)" stroke-width="1.5"></path><path d="M806.87 859.94L650.97 841.38" stroke="hsl(228.5, 77.2%, 51.5%)" stroke-width="1.5"></path><path d="M806.87 859.94L690.55 996.27" stroke="hsl(228.5, 77.2%, 51.5%)" stroke-width="1.5"></path><path d="M806.87 859.94L1006.23 843.78" stroke="hsl(228.5, 77.2%, 51.5%)" stroke-width="1.5"></path><path d="M806.87 859.94L828.34 638.73" stroke="hsl(228.5, 77.2%, 51.5%)" stroke-width="1.5"></path><path d="M1128.67 254.24L1128.67 254.24" stroke="hsl(228.5, 77.2%, 51.5%)" stroke-width="1.5"></path><path d="M1128.67 254.24L1128.26 407.99" stroke="hsl(228.5, 77.2%, 51.5%)" stroke-width="1.5"></path><path d="M1128.67 254.24L1285.28 241.37" stroke="hsl(228.5, 77.2%, 51.5%)" stroke-width="1.5"></path><path d="M1312.06 1146.92L1312.06 1146.92" stroke="hsl(228.5, 77.2%, 51.5%)" stroke-width="1.5"></path><path d="M1312.06 1146.92L1438.46 1135.48" stroke="hsl(228.5, 77.2%, 51.5%)" stroke-width="1.5"></path><path d="M1312.06 1146.92L1260.23 1012.03" stroke="hsl(228.5, 77.2%, 51.5%)" stroke-width="1.5"></path><path d="M1312.06 1146.92L1160.32 1107.65" stroke="hsl(228.5, 77.2%, 51.5%)" stroke-width="1.5"></path><path d="M1312.06 1146.92L1443.94 1007.45" stroke="hsl(228.5, 77.2%, 51.5%)" stroke-width="1.5"></path><path d="M1312.06 1146.92L1115.11 999.08" stroke="hsl(228.5, 77.2%, 51.5%)" stroke-width="1.5"></path><path d="M1312.06 1146.92L1577.52 1118.57" stroke="hsl(228.5, 77.2%, 51.5%)" stroke-width="1.5"></path><path d="M1440.85 109.7L1440.85 109.7" stroke="hsl(228.5, 77.2%, 51.5%)" stroke-width="1.5"></path><path d="M1440.85 109.7L1446.72 193.8" stroke="hsl(228.5, 77.2%, 51.5%)" stroke-width="1.5"></path><path d="M1440.85 109.7L1411.84 -46.09" stroke="hsl(228.5, 77.2%, 51.5%)" stroke-width="1.5"></path><path d="M1446.72 193.8L1446.72 193.8" stroke="hsl(228.5, 77.2%, 51.5%)" stroke-width="1.5"></path><path d="M1446.72 193.8L1543.95 256.83" stroke="hsl(228.5, 77.2%, 51.5%)" stroke-width="1.5"></path><path d="M1457.91 497.13L1457.91 497.13" stroke="hsl(228.5, 77.2%, 51.5%)" stroke-width="1.5"></path><path d="M1457.91 497.13L1457.6 399.89" stroke="hsl(228.5, 77.2%, 51.5%)" stroke-width="1.5"></path><path d="M1457.91 497.13L1577.57 549.13" stroke="hsl(228.5, 77.2%, 51.5%)" stroke-width="1.5"></path><path d="M1457.91 497.13L1303.13 544.66" stroke="hsl(228.5, 77.2%, 51.5%)" stroke-width="1.5"></path><path d="M1457.91 497.13L1294.96 397.65" stroke="hsl(228.5, 77.2%, 51.5%)" stroke-width="1.5"></path><path d="M1457.91 497.13L1598.05 353.87" stroke="hsl(228.5, 77.2%, 51.5%)" stroke-width="1.5"></path><path d="M1457.91 497.13L1599.46 659.96" stroke="hsl(228.5, 77.2%, 51.5%)" stroke-width="1.5"></path><path d="M1438.46 1135.48L1438.46 1135.48" stroke="hsl(228.5, 77.2%, 51.5%)" stroke-width="1.5"></path><path d="M1438.46 1135.48L1443.94 1007.45" stroke="hsl(228.5, 77.2%, 51.5%)" stroke-width="1.5"></path><path d="M-46.33 852.9L-46.33 852.9" stroke="hsl(228.5, 77.2%, 51.5%)" stroke-width="1.5"></path><path d="M-46.33 852.9L-43.84 979.14" stroke="hsl(228.5, 77.2%, 51.5%)" stroke-width="1.5"></path><path d="M-46.33 852.9L39.75 961.66" stroke="hsl(228.5, 77.2%, 51.5%)" stroke-width="1.5"></path><path d="M-46.33 852.9L104.16 797.55" stroke="hsl(228.5, 77.2%, 51.5%)" stroke-width="1.5"></path><path d="M-46.33 852.9L198.85 961.37" stroke="hsl(228.5, 77.2%, 51.5%)" stroke-width="1.5"></path><path d="M-46.33 852.9L235.23 846.36" stroke="hsl(228.5, 77.2%, 51.5%)" stroke-width="1.5"></path><path d="M-43.84 979.14L-43.84 979.14" stroke="hsl(228.5, 77.2%, 51.5%)" stroke-width="1.5"></path><path d="M-43.84 979.14L39.75 961.66" stroke="hsl(228.5, 77.2%, 51.5%)" stroke-width="1.5"></path><path d="M-43.84 979.14L-43.87 1153.89" stroke="hsl(228.5, 77.2%, 51.5%)" stroke-width="1.5"></path><path d="M-43.87 1153.89L-43.87 1153.89" stroke="hsl(228.5, 77.2%, 51.5%)" stroke-width="1.5"></path><path d="M-43.87 1153.89L93.65 1132" stroke="hsl(228.5, 77.2%, 51.5%)" stroke-width="1.5"></path><path d="M104.16 797.55L104.16 797.55" stroke="hsl(228.5, 77.2%, 51.5%)" stroke-width="1.5"></path><path d="M104.16 797.55L235.23 846.36" stroke="hsl(228.5, 77.2%, 51.5%)" stroke-width="1.5"></path><path d="M104.16 797.55L39.75 961.66" stroke="hsl(228.5, 77.2%, 51.5%)" stroke-width="1.5"></path><path d="M104.16 797.55L-43.84 979.14" stroke="hsl(228.5, 77.2%, 51.5%)" stroke-width="1.5"></path><path d="M39.75 961.66L39.75 961.66" stroke="hsl(228.5, 77.2%, 51.5%)" stroke-width="1.5"></path><path d="M39.75 961.66L93.65 1132" stroke="hsl(228.5, 77.2%, 51.5%)" stroke-width="1.5"></path><path d="M93.65 1132L93.65 1132" stroke="hsl(228.5, 77.2%, 51.5%)" stroke-width="1.5"></path><path d="M235.23 846.36L235.23 846.36" stroke="hsl(228.5, 77.2%, 51.5%)" stroke-width="1.5"></path><path d="M235.23 846.36L371.74 840.42" stroke="hsl(228.5, 77.2%, 51.5%)" stroke-width="1.5"></path><path d="M248.88 1149.45L248.88 1149.45" stroke="hsl(228.5, 77.2%, 51.5%)" stroke-width="1.5"></path><path d="M248.88 1149.45L93.65 1132" stroke="hsl(228.5, 77.2%, 51.5%)" stroke-width="1.5"></path><path d="M248.88 1149.45L397.2 979.19" stroke="hsl(228.5, 77.2%, 51.5%)" stroke-width="1.5"></path><path d="M248.88 1149.45L515.33 1149.27" stroke="hsl(228.5, 77.2%, 51.5%)" stroke-width="1.5"></path><path d="M371.74 840.42L371.74 840.42" stroke="hsl(228.5, 77.2%, 51.5%)" stroke-width="1.5"></path><path d="M371.74 840.42L397.2 979.19" stroke="hsl(228.5, 77.2%, 51.5%)" stroke-width="1.5"></path><path d="M371.74 840.42L514.1 796.69" stroke="hsl(228.5, 77.2%, 51.5%)" stroke-width="1.5"></path><path d="M371.74 840.42L198.85 961.37" stroke="hsl(228.5, 77.2%, 51.5%)" stroke-width="1.5"></path><path d="M371.74 840.42L531.19 985.56" stroke="hsl(228.5, 77.2%, 51.5%)" stroke-width="1.5"></path><path d="M371.74 840.42L104.16 797.55" stroke="hsl(228.5, 77.2%, 51.5%)" stroke-width="1.5"></path><path d="M397.2 979.19L397.2 979.19" stroke="hsl(228.5, 77.2%, 51.5%)" stroke-width="1.5"></path><path d="M397.2 979.19L531.19 985.56" stroke="hsl(228.5, 77.2%, 51.5%)" stroke-width="1.5"></path><path d="M514.1 796.69L514.1 796.69" stroke="hsl(228.5, 77.2%, 51.5%)" stroke-width="1.5"></path><path d="M514.1 796.69L650.97 841.38" stroke="hsl(228.5, 77.2%, 51.5%)" stroke-width="1.5"></path><path d="M514.1 796.69L658.34 675.26" stroke="hsl(228.5, 77.2%, 51.5%)" stroke-width="1.5"></path><path d="M514.1 796.69L531.19 985.56" stroke="hsl(228.5, 77.2%, 51.5%)" stroke-width="1.5"></path><path d="M514.1 796.69L397.2 979.19" stroke="hsl(228.5, 77.2%, 51.5%)" stroke-width="1.5"></path><path d="M531.19 985.56L531.19 985.56" stroke="hsl(228.5, 77.2%, 51.5%)" stroke-width="1.5"></path><path d="M531.19 985.56L690.55 996.27" stroke="hsl(228.5, 77.2%, 51.5%)" stroke-width="1.5"></path><path d="M531.19 985.56L650.97 841.38" stroke="hsl(228.5, 77.2%, 51.5%)" stroke-width="1.5"></path><path d="M650.97 841.38L650.97 841.38" stroke="hsl(228.5, 77.2%, 51.5%)" stroke-width="1.5"></path><path d="M690.55 996.27L690.55 996.27" stroke="hsl(228.5, 77.2%, 51.5%)" stroke-width="1.5"></path><path d="M690.55 996.27L826.86 947.78" stroke="hsl(228.5, 77.2%, 51.5%)" stroke-width="1.5"></path><path d="M690.55 996.27L701.98 1141.14" stroke="hsl(228.5, 77.2%, 51.5%)" stroke-width="1.5"></path><path d="M690.55 996.27L650.97 841.38" stroke="hsl(228.5, 77.2%, 51.5%)" stroke-width="1.5"></path><path d="M701.98 1141.14L701.98 1141.14" stroke="hsl(228.5, 77.2%, 51.5%)" stroke-width="1.5"></path><path d="M701.98 1141.14L515.33 1149.27" stroke="hsl(228.5, 77.2%, 51.5%)" stroke-width="1.5"></path><path d="M701.98 1141.14L826.86 947.78" stroke="hsl(228.5, 77.2%, 51.5%)" stroke-width="1.5"></path><path d="M701.98 1141.14L531.19 985.56" stroke="hsl(228.5, 77.2%, 51.5%)" stroke-width="1.5"></path><path d="M701.98 1141.14L973.17 1097.29" stroke="hsl(228.5, 77.2%, 51.5%)" stroke-width="1.5"></path><path d="M852.12 539.41L852.12 539.41" stroke="hsl(228.5, 77.2%, 51.5%)" stroke-width="1.5"></path><path d="M852.12 539.41L828.34 638.73" stroke="hsl(228.5, 77.2%, 51.5%)" stroke-width="1.5"></path><path d="M852.12 539.41L997.92 512.19" stroke="hsl(228.5, 77.2%, 51.5%)" stroke-width="1.5"></path><path d="M852.12 539.41L962.84 652.02" stroke="hsl(228.5, 77.2%, 51.5%)" stroke-width="1.5"></path><path d="M852.12 539.41L658.34 675.26" stroke="hsl(228.5, 77.2%, 51.5%)" stroke-width="1.5"></path><path d="M852.12 539.41L1120.89 674.39" stroke="hsl(228.5, 77.2%, 51.5%)" stroke-width="1.5"></path><path d="M852.12 539.41L1128.26 407.99" stroke="hsl(228.5, 77.2%, 51.5%)" stroke-width="1.5"></path><path d="M828.34 638.73L828.34 638.73" stroke="hsl(228.5, 77.2%, 51.5%)" stroke-width="1.5"></path><path d="M828.34 638.73L962.84 652.02" stroke="hsl(228.5, 77.2%, 51.5%)" stroke-width="1.5"></path><path d="M828.34 638.73L997.92 512.19" stroke="hsl(228.5, 77.2%, 51.5%)" stroke-width="1.5"></path><path d="M826.86 947.78L826.86 947.78" stroke="hsl(228.5, 77.2%, 51.5%)" stroke-width="1.5"></path><path d="M826.86 947.78L984.01 1009.54" stroke="hsl(228.5, 77.2%, 51.5%)" stroke-width="1.5"></path><path d="M997.92 512.19L997.92 512.19" stroke="hsl(228.5, 77.2%, 51.5%)" stroke-width="1.5"></path><path d="M997.92 512.19L962.84 652.02" stroke="hsl(228.5, 77.2%, 51.5%)" stroke-width="1.5"></path><path d="M962.84 652.02L962.84 652.02" stroke="hsl(228.5, 77.2%, 51.5%)" stroke-width="1.5"></path><path d="M962.84 652.02L1120.89 674.39" stroke="hsl(228.5, 77.2%, 51.5%)" stroke-width="1.5"></path><path d="M1006.23 843.78L1006.23 843.78" stroke="hsl(228.5, 77.2%, 51.5%)" stroke-width="1.5"></path><path d="M1006.23 843.78L1112.14 817.96" stroke="hsl(228.5, 77.2%, 51.5%)" stroke-width="1.5"></path><path d="M1006.23 843.78L984.01 1009.54" stroke="hsl(228.5, 77.2%, 51.5%)" stroke-width="1.5"></path><path d="M1006.23 843.78L1115.11 999.08" stroke="hsl(228.5, 77.2%, 51.5%)" stroke-width="1.5"></path><path d="M1006.23 843.78L962.84 652.02" stroke="hsl(228.5, 77.2%, 51.5%)" stroke-width="1.5"></path><path d="M984.01 1009.54L984.01 1009.54" stroke="hsl(228.5, 77.2%, 51.5%)" stroke-width="1.5"></path><path d="M984.01 1009.54L973.17 1097.29" stroke="hsl(228.5, 77.2%, 51.5%)" stroke-width="1.5"></path><path d="M984.01 1009.54L1115.11 999.08" stroke="hsl(228.5, 77.2%, 51.5%)" stroke-width="1.5"></path><path d="M973.17 1097.29L973.17 1097.29" stroke="hsl(228.5, 77.2%, 51.5%)" stroke-width="1.5"></path><path d="M973.17 1097.29L1115.11 999.08" stroke="hsl(228.5, 77.2%, 51.5%)" stroke-width="1.5"></path><path d="M973.17 1097.29L1160.32 1107.65" stroke="hsl(228.5, 77.2%, 51.5%)" stroke-width="1.5"></path><path d="M973.17 1097.29L826.86 947.78" stroke="hsl(228.5, 77.2%, 51.5%)" stroke-width="1.5"></path><path d="M973.17 1097.29L1006.23 843.78" stroke="hsl(228.5, 77.2%, 51.5%)" stroke-width="1.5"></path><path d="M1152.89 -103.11L1152.89 -103.11" stroke="hsl(228.5, 77.2%, 51.5%)" stroke-width="1.5"></path><path d="M1152.89 -103.11L1411.84 -46.09" stroke="hsl(228.5, 77.2%, 51.5%)" stroke-width="1.5"></path><path d="M1152.89 -103.11L1440.85 109.7" stroke="hsl(228.5, 77.2%, 51.5%)" stroke-width="1.5"></path><path d="M1152.89 -103.11L1128.67 254.24" stroke="hsl(228.5, 77.2%, 51.5%)" stroke-width="1.5"></path><path d="M1152.89 -103.11L1285.28 241.37" stroke="hsl(228.5, 77.2%, 51.5%)" stroke-width="1.5"></path><path d="M1128.26 407.99L1128.26 407.99" stroke="hsl(228.5, 77.2%, 51.5%)" stroke-width="1.5"></path><path d="M1128.26 407.99L997.92 512.19" stroke="hsl(228.5, 77.2%, 51.5%)" stroke-width="1.5"></path><path d="M1128.26 407.99L1294.96 397.65" stroke="hsl(228.5, 77.2%, 51.5%)" stroke-width="1.5"></path><path d="M1128.26 407.99L1303.13 544.66" stroke="hsl(228.5, 77.2%, 51.5%)" stroke-width="1.5"></path><path d="M1128.26 407.99L1285.28 241.37" stroke="hsl(228.5, 77.2%, 51.5%)" stroke-width="1.5"></path><path d="M1120.89 674.39L1120.89 674.39" stroke="hsl(228.5, 77.2%, 51.5%)" stroke-width="1.5"></path><path d="M1120.89 674.39L1255.34 711.38" stroke="hsl(228.5, 77.2%, 51.5%)" stroke-width="1.5"></path><path d="M1120.89 674.39L1112.14 817.96" stroke="hsl(228.5, 77.2%, 51.5%)" stroke-width="1.5"></path><path d="M1112.14 817.96L1112.14 817.96" stroke="hsl(228.5, 77.2%, 51.5%)" stroke-width="1.5"></path><path d="M1115.11 999.08L1115.11 999.08" stroke="hsl(228.5, 77.2%, 51.5%)" stroke-width="1.5"></path><path d="M1115.11 999.08L1160.32 1107.65" stroke="hsl(228.5, 77.2%, 51.5%)" stroke-width="1.5"></path><path d="M1115.11 999.08L1260.23 1012.03" stroke="hsl(228.5, 77.2%, 51.5%)" stroke-width="1.5"></path><path d="M1115.11 999.08L1112.14 817.96" stroke="hsl(228.5, 77.2%, 51.5%)" stroke-width="1.5"></path><path d="M1160.32 1107.65L1160.32 1107.65" stroke="hsl(228.5, 77.2%, 51.5%)" stroke-width="1.5"></path><path d="M1285.28 241.37L1285.28 241.37" stroke="hsl(228.5, 77.2%, 51.5%)" stroke-width="1.5"></path><path d="M1285.28 241.37L1294.96 397.65" stroke="hsl(228.5, 77.2%, 51.5%)" stroke-width="1.5"></path><path d="M1294.96 397.65L1294.96 397.65" stroke="hsl(228.5, 77.2%, 51.5%)" stroke-width="1.5"></path><path d="M1294.96 397.65L1303.13 544.66" stroke="hsl(228.5, 77.2%, 51.5%)" stroke-width="1.5"></path><path d="M1303.13 544.66L1303.13 544.66" stroke="hsl(228.5, 77.2%, 51.5%)" stroke-width="1.5"></path><path d="M1303.13 544.66L1255.34 711.38" stroke="hsl(228.5, 77.2%, 51.5%)" stroke-width="1.5"></path><path d="M1303.13 544.66L1457.6 399.89" stroke="hsl(228.5, 77.2%, 51.5%)" stroke-width="1.5"></path><path d="M1255.34 711.38L1255.34 711.38" stroke="hsl(228.5, 77.2%, 51.5%)" stroke-width="1.5"></path><path d="M1255.34 711.38L1278.53 796.18" stroke="hsl(228.5, 77.2%, 51.5%)" stroke-width="1.5"></path><path d="M1255.34 711.38L1112.14 817.96" stroke="hsl(228.5, 77.2%, 51.5%)" stroke-width="1.5"></path><path d="M1255.34 711.38L1437.99 834.3" stroke="hsl(228.5, 77.2%, 51.5%)" stroke-width="1.5"></path><path d="M1278.53 796.18L1278.53 796.18" stroke="hsl(228.5, 77.2%, 51.5%)" stroke-width="1.5"></path><path d="M1278.53 796.18L1437.99 834.3" stroke="hsl(228.5, 77.2%, 51.5%)" stroke-width="1.5"></path><path d="M1278.53 796.18L1112.14 817.96" stroke="hsl(228.5, 77.2%, 51.5%)" stroke-width="1.5"></path><path d="M1278.53 796.18L1120.89 674.39" stroke="hsl(228.5, 77.2%, 51.5%)" stroke-width="1.5"></path><path d="M1278.53 796.18L1260.23 1012.03" stroke="hsl(228.5, 77.2%, 51.5%)" stroke-width="1.5"></path><path d="M1278.53 796.18L1303.13 544.66" stroke="hsl(228.5, 77.2%, 51.5%)" stroke-width="1.5"></path><path d="M1260.23 1012.03L1260.23 1012.03" stroke="hsl(228.5, 77.2%, 51.5%)" stroke-width="1.5"></path><path d="M1260.23 1012.03L1160.32 1107.65" stroke="hsl(228.5, 77.2%, 51.5%)" stroke-width="1.5"></path><path d="M1411.84 -46.09L1411.84 -46.09" stroke="hsl(228.5, 77.2%, 51.5%)" stroke-width="1.5"></path><path d="M1411.84 -46.09L1541.03 -49.84" stroke="hsl(228.5, 77.2%, 51.5%)" stroke-width="1.5"></path><path d="M1411.84 -46.09L1612.05 89.3" stroke="hsl(228.5, 77.2%, 51.5%)" stroke-width="1.5"></path><path d="M1411.84 -46.09L1446.72 193.8" stroke="hsl(228.5, 77.2%, 51.5%)" stroke-width="1.5"></path><path d="M1457.6 399.89L1457.6 399.89" stroke="hsl(228.5, 77.2%, 51.5%)" stroke-width="1.5"></path><path d="M1457.6 399.89L1598.05 353.87" stroke="hsl(228.5, 77.2%, 51.5%)" stroke-width="1.5"></path><path d="M1437.99 834.3L1437.99 834.3" stroke="hsl(228.5, 77.2%, 51.5%)" stroke-width="1.5"></path><path d="M1437.99 834.3L1584.85 853.33" stroke="hsl(228.5, 77.2%, 51.5%)" stroke-width="1.5"></path><path d="M1443.94 1007.45L1443.94 1007.45" stroke="hsl(228.5, 77.2%, 51.5%)" stroke-width="1.5"></path><path d="M1443.94 1007.45L1604.85 967.78" stroke="hsl(228.5, 77.2%, 51.5%)" stroke-width="1.5"></path><path d="M1443.94 1007.45L1437.99 834.3" stroke="hsl(228.5, 77.2%, 51.5%)" stroke-width="1.5"></path><path d="M1541.03 -49.84L1541.03 -49.84" stroke="hsl(228.5, 77.2%, 51.5%)" stroke-width="1.5"></path><path d="M1541.03 -49.84L1612.05 89.3" stroke="hsl(228.5, 77.2%, 51.5%)" stroke-width="1.5"></path><path d="M1541.03 -49.84L1440.85 109.7" stroke="hsl(228.5, 77.2%, 51.5%)" stroke-width="1.5"></path><path d="M1612.05 89.3L1612.05 89.3" stroke="hsl(228.5, 77.2%, 51.5%)" stroke-width="1.5"></path><path d="M1612.05 89.3L1440.85 109.7" stroke="hsl(228.5, 77.2%, 51.5%)" stroke-width="1.5"></path><path d="M1543.95 256.83L1543.95 256.83" stroke="hsl(228.5, 77.2%, 51.5%)" stroke-width="1.5"></path><path d="M1543.95 256.83L1598.05 353.87" stroke="hsl(228.5, 77.2%, 51.5%)" stroke-width="1.5"></path><path d="M1598.05 353.87L1598.05 353.87" stroke="hsl(228.5, 77.2%, 51.5%)" stroke-width="1.5"></path><path d="M1598.05 353.87L1577.57 549.13" stroke="hsl(228.5, 77.2%, 51.5%)" stroke-width="1.5"></path><path d="M1598.05 353.87L1446.72 193.8" stroke="hsl(228.5, 77.2%, 51.5%)" stroke-width="1.5"></path><path d="M1577.57 549.13L1577.57 549.13" stroke="hsl(228.5, 77.2%, 51.5%)" stroke-width="1.5"></path><path d="M1577.57 549.13L1599.46 659.96" stroke="hsl(228.5, 77.2%, 51.5%)" stroke-width="1.5"></path><path d="M1577.57 549.13L1457.6 399.89" stroke="hsl(228.5, 77.2%, 51.5%)" stroke-width="1.5"></path><path d="M1599.46 659.96L1599.46 659.96" stroke="hsl(228.5, 77.2%, 51.5%)" stroke-width="1.5"></path><path d="M1584.85 853.33L1584.85 853.33" stroke="hsl(228.5, 77.2%, 51.5%)" stroke-width="1.5"></path><path d="M1584.85 853.33L1604.85 967.78" stroke="hsl(228.5, 77.2%, 51.5%)" stroke-width="1.5"></path><path d="M1584.85 853.33L1599.46 659.96" stroke="hsl(228.5, 77.2%, 51.5%)" stroke-width="1.5"></path><path d="M1584.85 853.33L1443.94 1007.45" stroke="hsl(228.5, 77.2%, 51.5%)" stroke-width="1.5"></path><path d="M1584.85 853.33L1577.52 1118.57" stroke="hsl(228.5, 77.2%, 51.5%)" stroke-width="1.5"></path><path d="M1584.85 853.33L1577.57 549.13" stroke="hsl(228.5, 77.2%, 51.5%)" stroke-width="1.5"></path><path d="M1604.85 967.78L1604.85 967.78" stroke="hsl(228.5, 77.2%, 51.5%)" stroke-width="1.5"></path><path d="M1604.85 967.78L1577.52 1118.57" stroke="hsl(228.5, 77.2%, 51.5%)" stroke-width="1.5"></path><path d="M1577.52 1118.57L1577.52 1118.57" stroke="hsl(228.5, 77.2%, 51.5%)" stroke-width="1.5"></path><path d="M1577.52 1118.57L1438.46 1135.48" stroke="hsl(228.5, 77.2%, 51.5%)" stroke-width="1.5"></path><path d="M1577.52 1118.57L1443.94 1007.45" stroke="hsl(228.5, 77.2%, 51.5%)" stroke-width="1.5"></path><circle r="25" cx="198.85" cy="961.37" fill="url(#SvgjsRadialGradient1001)"></circle><circle r="25" cx="399.62" cy="1155.68" fill="url(#SvgjsRadialGradient1001)"></circle><circle r="25" cx="515.33" cy="1149.27" fill="url(#SvgjsRadialGradient1001)"></circle><circle r="25" cx="658.34" cy="675.26" fill="url(#SvgjsRadialGradient1001)"></circle><circle r="25" cx="806.87" cy="859.94" fill="url(#SvgjsRadialGradient1001)"></circle><circle r="25" cx="1128.67" cy="254.24" fill="url(#SvgjsRadialGradient1001)"></circle><circle r="25" cx="1312.06" cy="1146.92" fill="url(#SvgjsRadialGradient1001)"></circle><circle r="25" cx="1440.85" cy="109.7" fill="url(#SvgjsRadialGradient1001)"></circle><circle r="25" cx="1446.72" cy="193.8" fill="url(#SvgjsRadialGradient1001)"></circle><circle r="25" cx="1457.91" cy="497.13" fill="url(#SvgjsRadialGradient1001)"></circle><circle r="25" cx="1438.46" cy="1135.48" fill="url(#SvgjsRadialGradient1001)"></circle><circle r="5" cx="-46.33" cy="852.9" fill="#8b9ad9"></circle><circle r="5" cx="-43.84" cy="979.14" fill="#8b9ad9"></circle><circle r="5" cx="-43.87" cy="1153.89" fill="#8b9ad9"></circle><circle r="5" cx="104.16" cy="797.55" fill="#8b9ad9"></circle><circle r="5" cx="39.75" cy="961.66" fill="#8b9ad9"></circle><circle r="5" cx="93.65" cy="1132" fill="#8b9ad9"></circle><circle r="5" cx="235.23" cy="846.36" fill="#8b9ad9"></circle><circle r="5" cx="248.88" cy="1149.45" fill="#8b9ad9"></circle><circle r="5" cx="371.74" cy="840.42" fill="#8b9ad9"></circle><circle r="5" cx="397.2" cy="979.19" fill="#8b9ad9"></circle><circle r="5" cx="514.1" cy="796.69" fill="#8b9ad9"></circle><circle r="5" cx="531.19" cy="985.56" fill="#8b9ad9"></circle><circle r="5" cx="650.97" cy="841.38" fill="#8b9ad9"></circle><circle r="5" cx="690.55" cy="996.27" fill="#8b9ad9"></circle><circle r="5" cx="701.98" cy="1141.14" fill="#8b9ad9"></circle><circle r="5" cx="852.12" cy="539.41" fill="#8b9ad9"></circle><circle r="5" cx="828.34" cy="638.73" fill="#8b9ad9"></circle><circle r="5" cx="826.86" cy="947.78" fill="#8b9ad9"></circle><circle r="5" cx="997.92" cy="512.19" fill="#8b9ad9"></circle><circle r="5" cx="962.84" cy="652.02" fill="#8b9ad9"></circle><circle r="5" cx="1006.23" cy="843.78" fill="#8b9ad9"></circle><circle r="5" cx="984.01" cy="1009.54" fill="#8b9ad9"></circle><circle r="5" cx="973.17" cy="1097.29" fill="#8b9ad9"></circle><circle r="5" cx="1152.89" cy="-103.11" fill="#8b9ad9"></circle><circle r="5" cx="1128.26" cy="407.99" fill="#8b9ad9"></circle><circle r="5" cx="1120.89" cy="674.39" fill="#8b9ad9"></circle><circle r="5" cx="1112.14" cy="817.96" fill="#8b9ad9"></circle><circle r="5" cx="1115.11" cy="999.08" fill="#8b9ad9"></circle><circle r="5" cx="1160.32" cy="1107.65" fill="#8b9ad9"></circle><circle r="5" cx="1285.28" cy="241.37" fill="#8b9ad9"></circle><circle r="5" cx="1294.96" cy="397.65" fill="#8b9ad9"></circle><circle r="5" cx="1303.13" cy="544.66" fill="#8b9ad9"></circle><circle r="5" cx="1255.34" cy="711.38" fill="#8b9ad9"></circle><circle r="5" cx="1278.53" cy="796.18" fill="#8b9ad9"></circle><circle r="5" cx="1260.23" cy="1012.03" fill="#8b9ad9"></circle><circle r="5" cx="1411.84" cy="-46.09" fill="#8b9ad9"></circle><circle r="5" cx="1457.6" cy="399.89" fill="#8b9ad9"></circle><circle r="5" cx="1437.99" cy="834.3" fill="#8b9ad9"></circle><circle r="5" cx="1443.94" cy="1007.45" fill="#8b9ad9"></circle><circle r="5" cx="1541.03" cy="-49.84" fill="#8b9ad9"></circle><circle r="5" cx="1612.05" cy="89.3" fill="#8b9ad9"></circle><circle r="5" cx="1543.95" cy="256.83" fill="#8b9ad9"></circle><circle r="5" cx="1598.05" cy="353.87" fill="#8b9ad9"></circle><circle r="5" cx="1577.57" cy="549.13" fill="#8b9ad9"></circle><circle r="5" cx="1599.46" cy="659.96" fill="#8b9ad9"></circle><circle r="5" cx="1584.85" cy="853.33" fill="#8b9ad9"></circle><circle r="5" cx="1604.85" cy="967.78" fill="#8b9ad9"></circle><circle r="5" cx="1577.52" cy="1118.57" fill="#8b9ad9"></circle></g><defs><mask id="SvgjsMask1000"><rect width="1440" height="1000" fill="#ffffff"></rect></mask><radialGradient id="SvgjsRadialGradient1001"><stop stop-color="#ffffff" offset="0.1"></stop><stop stop-color="#1735b3" offset="0.2"></stop><stop stop-color="rgba(23, 53, 179, 0)" offset="1"></stop></radialGradient></defs></svg>