<svg xmlns="http://www.w3.org/2000/svg" version="1.1" xmlns:xlink="http://www.w3.org/1999/xlink" xmlns:svgjs="http://svgjs.com/svgjs" width="200" height="1000" preserveAspectRatio="none" viewBox="0 0 200 1000"><g mask="url(&quot;#SvgjsMask1014&quot;)" fill="none"><rect width="200" height="1000" x="0" y="0" fill="#0e2a47"></rect><circle r="1.995" cx="33.545" cy="288.835" filter="url(#SvgjsFilter1015)" fill="rgba(51, 121, 194, 0.58)"></circle><circle r="1.94" cx="181.91" cy="792.96" filter="url(#SvgjsFilter1015)" fill="rgba(51, 121, 194, 0.58)"></circle><circle r="2.805" cx="157.10500000000002" cy="228.365" filter="url(#SvgjsFilter1015)" fill="rgba(51, 121, 194, 0.58)"></circle><circle r="3.26" cx="26.9" cy="196.69" filter="url(#SvgjsFilter1015)" fill="rgba(51, 121, 194, 0.58)"></circle><circle r="2.045" cx="126.075" cy="929.035" filter="url(#SvgjsFilter1015)" fill="rgba(51, 121, 194, 0.58)"></circle><circle r="2.64" cx="61.51" cy="342.09" filter="url(#SvgjsFilter1015)" fill="rgba(51, 121, 194, 0.58)"></circle><circle r="2.595" cx="147.945" cy="330.50500000000005" filter="url(#SvgjsFilter1015)" fill="rgba(51, 121, 194, 0.58)"></circle><circle r="2.125" cx="188.255" cy="327.895" filter="url(#SvgjsFilter1015)" fill="rgba(51, 121, 194, 0.58)"></circle><circle r="1.805" cx="66.305" cy="325.77500000000003" filter="url(#SvgjsFilter1015)" fill="rgba(51, 121, 194, 0.58)"></circle><circle r="2.32" cx="34.88" cy="771.87" filter="url(#SvgjsFilter1015)" fill="rgba(51, 121, 194, 0.58)"></circle><circle r="1.685" cx="148.195" cy="582.775" filter="url(#SvgjsFilter1015)" fill="rgba(51, 121, 194, 0.58)"></circle><circle r="2.755" cx="120.285" cy="931.075" filter="url(#SvgjsFilter1015)" fill="rgba(51, 121, 194, 0.58)"></circle><circle r="2.76" cx="180.28" cy="362.31" filter="url(#SvgjsFilter1015)" fill="rgba(51, 121, 194, 0.58)"></circle><circle r="2.27" cx="142.87" cy="208.53" filter="url(#SvgjsFilter1015)" fill="rgba(51, 121, 194, 0.58)"></circle><circle r="1.77" cx="125.97" cy="432.31" filter="url(#SvgjsFilter1015)" fill="rgba(51, 121, 194, 0.58)"></circle><circle r="2.58" cx="34.52" cy="997.6" filter="url(#SvgjsFilter1015)" fill="rgba(51, 121, 194, 0.58)"></circle><circle r="2.195" cx="167.125" cy="361.735" filter="url(#SvgjsFilter1015)" fill="rgba(51, 121, 194, 0.58)"></circle><circle r="2.325" cx="131.42499999999998" cy="297.985" filter="url(#SvgjsFilter1015)" fill="rgba(51, 121, 194, 0.58)"></circle><circle r="2.425" cx="17.235" cy="954.2349999999999" filter="url(#SvgjsFilter1015)" fill="rgba(51, 121, 194, 0.58)"></circle><circle r="2.05" cx="43.07" cy="135.63000000000002" filter="url(#SvgjsFilter1015)" fill="rgba(51, 121, 194, 0.58)"></circle><path d="M86.1 142.6L85.7 164.8 79.7 170.3 79.9 162.8C80.1 162 79.4 161.5 78.6 161.3 78 161.4 77.2 162 77.3 162.6L76.9 172.9 71.3 178.5 69.5 170.8 74.9 161.9C74.9 161.9 75 161.7 75 161.7 75.2 161.1 74.8 160.4 74.3 160 73.5 159.8 72.9 159.9 72.4 160.6L68.5 167 66.7 159.3 78.1 140.3C78.1 140.3 78.4 140.1 78.4 140.1 78.6 139.6 78.2 138.9 77.7 138.4 77 137.9 76 138.2 75.8 139L65.8 155.5 63.3 146.1 67.8 138.7C67.8 138.7 67.8 138.7 67.9 138.5 68 137.9 67.9 137.3 67.5 136.9 66.7 136.7 65.8 136.7 65.3 137.4L62.4 142.4 60.6 135.5C60.6 134.6 59.8 134.4 59.2 134.5 58.3 134.5 57.8 135.3 58.1 136.2L59.6 143 55 139.9C54.2 139.7 53.3 139.7 53.1 140.5 52.6 141.3 52.7 141.9 53.4 142.4L60.8 146.8 63 156.2 46.3 146.1C45.8 145.6 44.9 145.9 44.4 146.7 44.2 147.2 44.3 148.1 45 148.6L64 159.9 65.8 167.6 59.4 163.8C58.6 163.3 57.9 163.6 57.5 164.4 57 164.8 57.3 165.8 57.8 166.2L66.7 171.4 68.7 179.2 61 177 56.1 168C55.7 167.3 54.9 167.1 54.2 167.5 53.6 167.6 53.3 168.7 53.7 169.3L57.3 175.9 49.5 173.6 39 154.1C38.7 153.4 37.9 153.2 37.2 153.5 36.5 153.9 36.2 154.7 36.6 155.4L45.8 172.5 36.7 169.9 32.6 162.3C32.2 161.6 31.4 161.4 30.7 161.8 30 162.2 29.8 163 30.2 163.7L32.7 168.7 26.1 166.8C25.3 166.6 24.6 166.9 24.4 167.7 24.1 168.5 24.5 169.2 25.3 169.5L32 171.4 27.1 174.1C26.5 174.4 26.2 175.2 26.6 175.9S27.8 176.8 28.5 176.5L35.7 172.5 45 175.2 28.2 184.5C27.5 184.9 27.2 185.7 27.6 186.3 28 187 28.8 187.3 29.5 186.9L48.8 176.3 56.5 178.6 50 182.1C49.3 182.5 49 183.3 49.4 184 49.8 184.7 50.6 184.9 51.3 184.6L60.2 179.6 67.7 181.8 62.1 187.1 51.7 187C51.1 187.1 50.4 187.8 50.5 188.4 50.5 189.2 51 189.7 51.8 189.9L59.2 190.1 53.6 195.4 31.5 195C30.6 195 30.2 195.5 29.9 196.3 30 197.2 30.7 197.7 31.2 197.8L50.8 198.3 43.6 204.9 35.3 204.8C34.5 204.5 34 205.3 33.7 206.1 33.9 206.7 34.5 207.4 35.4 207.4L40.8 207.6 35.9 212.5C35.2 212.9 35.3 213.7 35.9 214.5 36.4 214.9 37.2 214.9 37.7 214.4L42.8 209.6 42.6 215.3C42.7 216.2 43.4 216.7 44 216.6 44.8 216.8 45.2 216.3 45.4 215.8 45.4 215.5 45.4 215.5 45.5 215.3L45.6 206.9 52.8 200.3 52.4 219.6C52.1 220.4 52.9 220.9 53.7 221.1 54.3 221 54.7 220.6 54.8 220 54.9 219.8 54.9 219.8 54.9 219.8L55.6 197.4 61.2 192.1 61.1 199.6C61.1 200.4 61.6 200.9 62.4 201.1 63 201 63.7 200.6 63.8 200.1 63.9 199.8 63.9 199.8 64 199.5L64.1 189.2 69.7 183.8 71.6 191.3 66.4 200.2C65.9 201 66.2 201.9 66.6 202.3 67.4 202.6 68.3 202.5 68.6 201.7L72.4 195.3 74.6 202.9 62.9 222.1C62.5 222.5 62.8 223.5 63.3 223.9 64.1 224.2 64.9 224.1 65.4 223.4L75.4 206.9 77.6 216.2 73.3 223.4C72.8 224.1 73.1 225 73.9 225.3 74.3 225.7 75.2 225.7 75.7 224.9L78.6 220 80.3 226.9C80.4 227.5 81.2 228 82.1 227.9 82.4 227.8 82.8 227.3 83 226.8 83 226.8 83 226.5 83.1 226.2L81.4 219.4 86.3 222.2C86.8 222.7 87.7 222.4 88.1 221.9 88.2 221.6 88.2 221.6 88.2 221.6 88.5 220.8 88.1 220.1 87.5 220L80.4 215.6 78 206.2 94.7 216.3C95.5 216.5 96.1 216.4 96.6 215.7 96.6 215.7 96.7 215.4 96.7 215.4 96.8 214.9 96.7 214.3 96 213.8L77.1 202.2 75.2 194.7 81.6 198.6C82.4 198.8 83.3 198.8 83.5 198 83.8 198.1 83.9 197.8 83.9 197.8 84 197.3 83.7 196.6 83.2 196.2L74.3 191 72.5 183.2 80 185.4 84.9 194.3C85.3 195 86.3 195.3 87 195 87.4 194.5 87.7 193.7 87.6 193.1L83.7 186.5 91.4 188.7 102 208C102.4 208.7 103.2 208.9 103.9 208.6 104.6 208.2 104.8 207.4 104.4 206.7L95.2 189.8 104.5 192.5 108.5 199.8C108.9 200.4 109.7 200.7 110.3 200.3S111.3 199.1 110.9 198.4L108.2 193.6 114.9 195.6C115.7 195.8 116.4 195.4 116.6 194.6 116.9 193.8 116.5 193.1 115.7 192.9L109 190.9 113.9 188C114.3 187.8 114.6 187.7 114.7 187.4 114.8 187.1 114.7 186.5 114.5 186.2 114.1 185.5 113.3 185.2 112.6 185.6L105.3 189.9 96 187.1 112.9 177.6C113.2 177.4 113.6 177.2 113.7 177 113.7 176.7 113.6 176.1 113.4 175.7 113.1 175.1 112.3 174.8 111.6 175.2L92.2 186.1 84.5 183.8 91.3 180.3C91.6 180.1 91.8 179.6 91.9 179.3 91.9 179 92 178.8 91.8 178.4 91.5 177.7 90.4 177.4 90 177.9L80.7 182.7 73.3 180.5 79 175 89.3 175.4C89.9 175.2 90.6 174.9 90.7 174.3 90.8 174.1 90.8 174.1 90.5 174 90.8 173.2 90.1 172.4 89.2 172.5L81.8 172.3 87.4 166.7 109.8 167.4C110.4 167.3 110.8 166.9 111 166.3 111.1 166.1 111.1 166.1 111.1 166.1 111 165.2 110.6 164.5 109.8 164.5L90.2 164.1 97.4 157.5 105.7 157.6C106.6 157.6 107 157.1 107.2 156.6 107.2 156.6 107.2 156.3 107.2 156.3 107.2 155.4 106.5 154.9 106 154.8L100.2 154.8 105.3 150C105.4 149.7 105.5 149.4 105.6 149.2 105.6 148.9 105.5 148.3 105.3 147.9 104.6 147.4 103.8 147.2 103.3 147.9L98.1 152.8 98.4 147.1C98.3 146.2 97.6 145.7 97.1 145.5 96.2 145.6 95.7 146.3 95.5 147.1L95.3 155.4 88.5 162.1 88.9 142.8C88.8 142 88.2 141.2 87.6 141.3 86.7 141.3 86 141.7 86.1 142.6Z" fill="rgba(51, 121, 194, 0.58)"></path><path d="M131.3 997.8L110.2 973.3 112.6 944.6 136.3 961 141.8 992.8C141.8 992.8 142 993.1 142 993.1 142.3 993.8 143.3 994.2 144.2 994.2 145.4 994.1 146.2 992.9 145.7 991.8L140.7 964.1 152.2 972 154.5 984.2C154.5 984.2 154.7 984.5 154.7 984.5 155 985.3 156.1 985.6 156.9 985.6 158.2 985.5 158.9 984.3 158.4 983.2L157 974.9 165.4 980.8C166.1 981.3 167.6 981 168.2 980.3 169.1 979.5 168.4 978.1 167.7 977.5L159.3 971.6 167.7 970.2C168.9 970.1 169.7 968.9 169.2 967.8 169 966.6 167.8 965.9 166.8 966.4L154.5 968.7 143.4 960.6 171.2 955.7C172.4 955.6 173.1 954.4 172.6 953.3 172.5 952.1 171.3 951.4 170.2 951.9L138.4 957.4 114.8 941 141.2 928.6 171.7 939.5C172.8 939.9 173.8 939.4 174.2 938.4 174.6 937.3 174.1 936.3 173 935.9L146.1 926.3 158.8 920.3 170.2 924.4C171.2 924.7 172.2 924.2 172.6 923.2 173 922.2 172.5 921.1 171.5 920.7L163.7 918 173.5 913.3C174.8 913.2 175 911.8 174.5 910.7 174 909.7 172.9 909.3 171.9 909.8L162.7 914.1 165.5 906.3C165.9 905.3 165.4 904.2 164.4 903.9S162.3 904 161.9 905L157.8 916.4 145.2 922.4 154.8 895.5C155.2 894.4 154.7 893.4 153.6 893 152.6 892.7 151.6 893.1 151.2 894.2L140.2 924.7 114.2 937 116.6 908.4 140.5 888C141.4 887.2 141.3 886 140.8 884.9 139.9 884 138.7 884.2 137.7 884.7L116.2 903 117.4 889.1 127 881.1C127.8 880.3 127.7 879 127.2 878 126.4 877.1 125.1 877.2 124.4 877.6L118 883.2 118.8 872.9C118.8 872 118.1 870.6 116.9 870.8 115.7 870.9 114.7 871.4 114.8 872.7L114 882.9 108.4 876.5C107.6 875.6 106.4 875.8 105.7 876.1 105.1 876.8 104.8 877.8 105.1 878.5 105.1 878.5 105.3 878.9 105.3 878.9L113.2 888.4 112 902.3 93.7 880.9C92.9 880 91.7 880.1 91 880.5 90.4 881.1 90.1 882.2 90.4 882.9 90.4 882.9 90.6 883.2 90.6 883.2L111.6 907.7 109.2 936.4 85.5 920 80 888.2C79.9 887 78.7 886.3 77.6 886.8 76.4 886.9 75.7 888.1 76.2 889.2L81.1 916.9 69.6 909 67.3 896.8C67.1 895.6 65.9 894.9 64.9 895.3 63.7 895.5 62.9 896.7 63.4 897.8L64.8 906.1 56.4 900.2C55.7 899.7 54.2 900 53.6 900.7 53.1 901.3 53.1 902.2 53.4 902.9 53.6 903.3 53.7 903.6 54.2 903.8L62.6 909.7 54.3 911.1C53 911.3 52.3 912.5 52.8 913.5 52.8 913.5 53 913.9 53 913.9 53.3 914.6 54.3 914.9 55.2 915L67.4 912.6 78.9 920.5 51.1 925.5C49.9 925.6 49.2 926.8 49.7 927.9 49.7 927.9 49.9 928.2 49.9 928.2 50.2 928.9 51.2 929.3 52.1 929.3L83.9 923.8 107.5 940.2 81.5 952.4 51 941.5C49.9 941.1 48.9 941.6 48.5 942.6 48.1 943.7 48.6 944.7 49.7 945.1L76.2 954.9 63.6 960.9 52.2 956.8C51.1 956.4 50.1 956.9 49.7 958S49.8 960.1 50.9 960.4L58.6 963.2 49.5 967.5C48.4 968 48.1 969.1 48.6 970.1 49.1 971.2 50.1 971.6 51.1 971.1L60.3 966.7 57.5 974.5C57.3 975 57.1 975.5 57.5 976.2S58.3 977.1 58.8 977.3C59.9 977.7 60.9 977.2 61.3 976.2L65.4 964.8 78 958.8 68.4 985.7C68.2 986.2 68 986.8 68.3 987.5 68.5 987.8 69.2 988.3 69.7 988.5 70.7 988.9 71.8 988.4 72.2 987.4L83.1 956.8 109.2 944.5 106.8 973.2 82.3 994.2C81.7 994.9 81.4 995.9 81.7 996.6 81.7 996.6 81.9 997 81.9 997 82.7 997.9 83.9 997.7 84.6 997.4L106.1 979.1 104.9 993 95.3 1000.9C94.8 1001.6 94.4 1002.7 94.8 1003.4 94.8 1003.4 94.9 1003.7 94.9 1003.7 95.8 1004.6 97 1004.5 97.7 1004.1L104.1 998.5 103.3 1008.8C103.5 1009.1 103.3 1009.6 103.5 1010 103.8 1010.7 104.5 1011.2 105.4 1011.3 106.6 1011.1 107.7 1010.6 107.5 1009.4L108.3 999.1 113.9 1005.5C114.7 1006.4 115.9 1006.3 116.6 1005.9 117.5 1005.1 117.4 1003.9 117 1003.2L109.1 993.6 110.3 979.7 128.6 1001.2C129.4 1002.1 130.6 1001.9 131.3 1001.6 131.9 1000 132.1 998.6 131.3 997.8Z" fill="rgba(51, 121, 194, 0.58)"></path><path d="M57.5 522.4L65.9 497.1 74.7 493 71.9 501.5C71.3 502.3 71.9 503.1 72.8 503.7 73.5 503.8 74.6 503.3 74.7 502.6L78.9 490.9 87.4 486.6 86.6 496.1 77.2 504.2C77.2 504.2 77 504.5 77 504.5 76.7 505.1 76.8 506 77.2 506.6 78.1 507.2 78.8 507.3 79.6 506.6L86.4 500.7 85.6 510.2 65.9 527.9C65.9 527.9 65.4 528 65.4 528 65 528.6 65.2 529.5 65.6 530.1 66.2 531 67.4 531 68 530.1L85.4 514.9 84.8 526.5 77.1 533.4C77.1 533.4 77.1 533.4 76.9 533.6 76.5 534.2 76.4 534.9 76.8 535.6 77.6 536.1 78.6 536.4 79.5 535.8L84.5 531.1 84.1 539.6C83.8 540.7 84.6 541.2 85.4 541.3 86.4 541.6 87.2 540.9 87.2 539.7L88 531.4 92.1 536.6C93 537.1 94 537.4 94.5 536.6 95.4 535.9 95.5 535.2 94.8 534.4L88 526.6 88.8 515.1 104.3 532.7C104.7 533.3 105.9 533.3 106.7 532.7 107.1 532.1 107.4 531.1 106.7 530.3L89.1 510.5 89.8 501 95.7 507.7C96.4 508.6 97.3 508.4 98.1 507.7 98.8 507.4 98.8 506.2 98.4 505.5L90.1 496.4 90.5 486.7 98.6 492 101 504C101.2 505 102 505.5 102.9 505.3 103.7 505.4 104.4 504.3 104.2 503.4L102.4 494.6 110.5 500 115.5 526.1C115.7 527.1 116.5 527.6 117.4 527.4 118.4 527.2 118.9 526.4 118.7 525.5L114.4 502.6 123.8 508.8 125.9 519C126 519.9 126.9 520.5 127.8 520.3 128.7 520.1 129.3 519.3 129.1 518.4L128 511.6 134.9 516.2C135.7 516.8 136.7 516.6 137.2 515.8 137.8 514.9 137.6 514 136.8 513.4L129.8 508.8 136.3 507.5C137.2 507.3 137.8 506.5 137.6 505.6S136.6 504.1 135.6 504.3L125.9 506.2 116.2 499.8 138.9 495.2C139.8 495 140.4 494.2 140.2 493.3 140 492.4 139.1 491.8 138.2 492L112.3 497.2 104.3 491.8 113.1 490.1C114 489.9 114.6 489.1 114.4 488.1 114.2 487.2 113.4 486.7 112.4 486.8L100.4 489.2 92.6 484.1 101 480 112.8 483.9C113.5 484 114.6 483.5 114.7 482.8 115 481.8 114.6 481.1 113.8 480.5L105.3 477.7 113.6 473.6 138.9 482C139.9 482.3 140.5 481.9 141.1 481.1 141.4 480.1 140.7 479.2 140.2 478.9L118 471.3 128.5 466.3 138 469.4C138.9 470 139.7 469.3 140.2 468.5 140.3 467.8 139.9 466.7 138.9 466.4L132.7 464.3 140.1 460.4C141 460.2 141.3 459.2 140.8 458.1 140.4 457.4 139.4 457.1 138.8 457.5L131.1 461.2 133.4 454.7C133.7 453.7 133 452.9 132.3 452.8 131.4 452.2 130.8 452.6 130.4 453.2 130.2 453.5 130.2 453.5 130.1 453.7L126.9 463.3 116.4 468.3 123.8 446.3C124.3 445.5 123.7 444.7 122.8 444.1 122.1 444 121.5 444.4 121.1 445 120.9 445.2 120.9 445.2 120.9 445.2L112 470.6 103.7 474.6 106.6 466.1C106.9 465.1 106.5 464.5 105.7 463.9 104.9 463.8 104 464 103.6 464.6 103.4 464.8 103.4 464.8 103.3 465.1L99.4 477 91.1 481 91.6 471.8 100.8 463.5C101.6 462.8 101.6 461.6 101.2 461 100.4 460.4 99.4 460.1 98.8 461L92.1 466.9 92.3 457.5 112.6 439.7C113.2 439.3 113.2 438.1 112.9 437.5 112 436.9 111 436.6 110.2 437.3L92.8 452.6 93.6 441.1 101.2 434.5C102 433.9 102 432.7 101.2 432.1 100.8 431.5 99.8 431.2 99 431.8L93.9 436.5 94.4 428C94.5 427.2 93.8 426.4 92.8 426.1 92.3 426.2 91.7 426.6 91.3 427.1 91.3 427.1 91.1 427.4 90.9 427.7L90.5 436.2 85.9 431.1C85.5 430.5 84.3 430.5 83.6 430.8 83.5 431.1 83.5 431.1 83.5 431.1 82.9 431.9 83.1 432.9 83.6 433.2L90.2 440.8 89.7 452.5 74.1 434.9C73.3 434.4 72.5 434.3 71.7 434.9 71.7 434.9 71.5 435.2 71.5 435.2 71.2 435.7 71.1 436.5 71.7 437.3L89.2 457.4 88.7 466.6 82.7 459.9C81.9 459.3 80.9 459 80.3 459.9 80.1 459.7 79.9 460 79.9 460 79.5 460.5 79.7 461.4 80.1 462.1L88.4 471.2 87.6 480.8 79.9 475.6 77.5 463.6C77.3 462.6 76.2 461.9 75.2 462.1 74.6 462.5 74 463.3 74 464L76 473 67.9 467.6 62.8 441.8C62.6 440.8 61.7 440.3 60.8 440.5 59.9 440.6 59.3 441.5 59.5 442.4L64.1 465.1 54.3 458.6 52.4 448.9C52.2 448 51.4 447.4 50.5 447.6S49 448.6 49.2 449.5L50.5 456 43.5 451.4C42.7 450.8 41.8 451 41.2 451.8 40.7 452.7 40.8 453.6 41.7 454.2L48.6 458.8 42 460.4C41.5 460.4 41 460.5 40.9 460.8 40.7 461.1 40.6 461.8 40.7 462.3 40.9 463.2 41.7 463.8 42.6 463.6L52.5 461.4 62.2 467.8 39.4 472.7C38.9 472.7 38.5 472.8 38.3 473.1 38.1 473.4 38 474.1 38.1 474.6 38.3 475.5 39.1 476.1 40 475.9L66.1 470.4 74.1 475.8 65.1 477.3C64.6 477.4 64.3 478 64.1 478.3 63.9 478.6 63.7 478.8 63.8 479.3 64 480.2 65.1 481 65.7 480.6L78 478.4 85.8 483.5 77.3 487.9 65.6 483.7C64.9 483.6 64 483.8 63.6 484.4 63.4 484.7 63.4 484.7 63.7 484.8 63.2 485.7 63.6 486.8 64.6 487.1L73.1 489.9 64.6 494.3 39.3 485.4C38.6 485.3 37.9 485.7 37.5 486.2 37.4 486.5 37.4 486.5 37.4 486.5 37.1 487.5 37.3 488.5 38.3 488.7L60.5 496.3 49.9 501.3 40.4 498.2C39.4 497.9 38.8 498.3 38.4 498.8 38.4 498.8 38.2 499.1 38.2 499.1 37.9 500.1 38.6 500.9 39.1 501.3L45.8 503.3 38.1 507C37.9 507.3 37.7 507.6 37.6 507.9 37.4 508.2 37.3 508.9 37.4 509.4 38 510.2 38.9 510.7 39.7 510.1L47.4 506.4 45.1 512.9C44.8 513.9 45.4 514.7 46 515.1 47 515.4 47.8 514.7 48.4 513.9L51.5 504.4 61.8 499.2 54.4 521.1C54.1 522.1 54.6 523.2 55.3 523.3 56.3 523.6 57.3 523.4 57.5 522.4Z" fill="rgba(51, 121, 194, 0.58)"></path><path d="M115.4 650L113.4 642.4 117.9 643.5C118.4 643.6 119 643.3 119.3 642.7 119.3 642 119 641.4 118.4 641.4L112.7 639.9 110.9 634.2 122.7 637.3C123.3 637.3 124 636.9 124.1 636.5 124.2 635.7 123.9 635 123.3 635.1L110.2 631.7 107.7 622.7 117.7 626.5 113.6 616.7 122.6 618.9 126.4 631.9C126.2 632 126.4 632.2 126.6 632.3 126.9 632.6 127.3 632.8 127.8 632.6 128.3 632.5 128.6 631.8 128.6 631.2L125.1 619.5 130.9 621.1 132.6 626.7C132.6 627 132.8 627.2 132.9 627.4 133.1 627.5 133.5 627.7 134 627.5 134.5 627.3 134.8 626.7 134.6 626.2L133.5 621.7 141 623.5C141.7 623.8 142.1 623.3 142.4 622.6 142.6 622.2 142.2 621.5 141.5 621.4L134 619.5 137.3 616.1C137.8 615.6 137.6 614.9 137.3 614.6 136.8 614.1 136.2 614.1 135.7 614.6L131.5 618.9 125.7 617.3 134 608.6C134.5 608.2 134.5 607.5 134 607.1 133.7 606.8 132.9 606.6 132.4 607.1L123.2 616.7 114.2 614.5 122.2 607.7 111.8 606.3 118.3 599.6 131.3 602.9C132 603 132.5 602.5 132.7 602.1 132.8 601.6 132.5 601 131.9 600.7L120 597.9 124.2 593.6 130 594.9C130.7 595.2 131.3 594.9 131.4 594.1 131.6 593.6 131.3 593 130.5 592.8L126 591.6 131.5 586C131.9 585.6 131.9 584.9 131.4 584.5S130.3 584 129.9 584.5L124.5 590.1 123.1 585.7C123 584.9 122.3 584.6 121.9 584.8 121.1 585 120.8 585.6 121.1 586.2L122.6 592 118.4 596.3 115.2 584.6C114.9 584 114.3 583.7 113.8 583.8 113 584 112.7 584.6 113.1 585.2L116.7 598.1 110.2 604.8 108.5 594.4 102 602.7 99.5 593.8 108.8 584.2C109.3 583.7 109.1 583 108.8 582.6 108.3 582.2 107.7 582.2 107.2 582.7L98.7 591.5 97 585.5 101.2 581.2C101.7 580.7 101.7 580.1 101.2 579.6 100.9 579.3 100.1 579.2 99.6 579.7L96.4 583 94.2 575.7C94 574.9 93.4 574.6 92.8 574.9 92.3 575.1 91.8 575.5 92.2 576.2L94.2 583.7 89.6 582.6C89.1 582.5 88.5 582.8 88.4 583.3 88.2 583.8 88.4 584.2 88.5 584.4 88.7 584.5 88.8 584.7 89.2 584.7L94.8 586.2 96.7 592 84.8 588.8C84.2 588.9 83.6 589.2 83.4 589.7 83.3 590.1 83.4 590.6 83.8 590.9 83.9 591.1 83.9 591.1 84.2 591.1L97.3 594.5 99.8 603.4 89.9 599.6 94 609.4 85 607.2 81.1 594.3C81 593.8 80.5 593.3 79.7 593.5 79.2 593.7 78.9 594.3 79 594.9L82.4 606.6 76.6 605 74.9 599.4C74.9 598.8 74.3 598.4 73.5 598.6 73 598.8 72.7 599.4 72.8 600L74.1 604.4 66.5 602.7C65.9 602.4 65.4 602.8 65.1 603.5 65.1 603.8 65.3 604.3 65.4 604.4 65.6 604.6 65.8 604.7 66.1 604.7L73.5 606.6 70.2 610C69.8 610.5 69.9 611.2 70.3 611.6L70.3 611.6C70.7 612 71.4 612 71.8 611.5L76 607.2 81.9 608.9 73.5 617.5C73 618 73.1 618.6 73.5 619S74.6 619.5 75.1 619L84.4 609.4 93.4 611.7 85.3 618.4 95.7 619.8 89.2 626.5 76.3 623.2C75.5 623.1 75 623.6 74.9 624.1 74.7 624.5 75 625.2 75.7 625.5L87.4 628.4 83.3 632.6 77.5 631.2C76.9 630.9 76.2 631.3 76.1 632.1 76 632.5 76.3 633.1 76.9 633.5L81.5 634.5 76.1 640.1C75.6 640.5 75.6 641.2 76.1 641.6S77.2 642.1 77.7 641.6L83.1 636 84.4 640.4C84.4 640.7 84.6 640.9 84.7 641 85.1 641.3 85.4 641.3 85.7 641.3 86.5 641.2 86.8 640.5 86.4 639.9L84.9 634.1 89.1 629.8 92.3 641.5C92.4 641.7 92.6 641.8 92.8 642 93.1 642.3 93.4 642.3 93.7 642.3 94.5 642.1 94.8 641.5 94.5 640.9L90.8 628 97.3 621.3 99 631.7 105.5 623.4 108 632.3 98.7 641.9C98.3 642.4 98.4 643.2 98.8 643.5 99.2 643.9 99.9 643.9 100.3 643.4L108.7 634.8 110.5 640.6 106.3 644.9C105.9 645.4 105.9 646 106.4 646.5S107.5 646.9 107.9 646.5L111.2 643.1 113.3 650.5C113.3 650.8 113.5 650.9 113.7 651.1 113.8 651.2 114.3 651.4 114.8 651.2 115.2 651.1 115.7 650.6 115.4 650ZM100.4 626.5L99 618 90.5 616.9 97.1 611.3 93.9 603.5 101.9 606.3 107.2 599.6 108.6 608.1 117.1 609.2 110.5 614.7 113.7 622.6 105.8 619.6 100.4 626.5Z" fill="rgba(51, 121, 194, 0.58)"></path><path d="M62.2 785.6L65.1 779.3 67.9 783C68.2 783.4 68.9 783.5 69.5 783.3 69.9 782.8 70.1 782.1 69.8 781.7L66.2 776.7 68.9 770.8 76.2 781C76.7 781.6 77.4 781.7 77.8 781.3 78.5 781 78.6 780.3 78.1 779.7L70 768.5 72.3 763.1 85.8 761.6 88.9 765.8 82.7 779.2C82.8 779.4 82.8 779.6 82.8 779.8 82.8 780.1 83.1 780.5 83.3 780.7 84.1 781 84.7 780.8 84.8 780.1L90.5 767.9 94.2 773 91.5 779.4C91.3 779.4 91.3 779.6 91.3 779.8 91.4 780.3 91.6 780.7 92.1 780.9 92.5 781 93.2 780.8 93.6 780.3L95.7 775.1 100.4 781.5C100.7 782 101.4 782.1 102 781.8 102.4 781.3 102.6 780.7 102.3 780.2L97.9 774.2 102.5 773.7C103.2 773.7 103.5 773 103.5 772.5 103.4 771.8 102.9 771.2 102.2 771.3L96.3 771.9 92.6 766.7 105 765.4C105.6 765.4 106 764.9 106 764.2 105.9 763.5 105.4 763.1 104.7 763.2L91 764.7 87.7 760.3 93.3 747.9 98.4 747.4 106.7 758.8C107 759.4 107.9 759.5 108.3 759 109 758.7 108.9 758.1 108.6 757.4L101 747.1 107.4 746.4 111.1 751.6C111.4 752 112.3 752.1 112.7 751.9S113.2 750.7 113 750.1L110.1 746.1 117.8 745.3C118.5 745.2 118.9 744.5 118.8 743.9 118.7 743.4 118.2 742.8 117.6 742.9L109.8 743.7 111.8 739C112 738.5 111.9 737.9 111.2 737.5 110.7 737.3 109.9 737.6 109.7 738.1L107.2 744 100.8 744.6 106 732.9C106.2 732.2 106.1 731.6 105.4 731.2 104.9 731 104 731.3 103.9 731.8L98.1 744.9 93 745.5 84.9 734.5 87.3 729.5 101 728.1C101.7 728 102.1 727.5 102 726.9 101.9 726.2 101.4 725.6 100.8 725.6L88.4 727 90.9 721.1 96.9 720.5C97.5 720.4 97.9 719.9 97.9 719.3 97.8 718.6 97.3 718.2 96.6 718.3L92 718.8 95.1 711.9C95.2 711.5 94.9 710.6 94.5 710.4 93.8 710.3 93.1 710.4 93 711.1L89.7 718.1 86.5 713.7C86.1 713.3 85.4 713.2 85 713.5 84.5 713.7 84.4 714.2 84.4 714.6 84.4 714.6 84.4 714.9 84.7 715.1L88.6 720.7 86.1 726.5 78 715.8C77.8 715.1 77.1 715 76.4 715.5 76.3 715.7 76.1 716 76.1 716.4 76.1 716.6 76.1 716.9 76.2 717.1L85 728.9 82.8 733.6 69.4 735 65.9 730.2 71.5 717.6C71.9 716.9 71.6 716.2 70.9 716.1 70.4 715.7 69.8 716 69.4 716.7L64.4 728.2 60.5 723 63 717.4C63.2 716.9 62.9 716.2 62.4 715.9 61.7 715.7 61.1 715.8 60.9 716.5L58.9 720.7 54.7 715.1C54.4 714.5 53.8 714.5 53.1 714.8 52.9 715.1 52.8 715.5 52.8 716 52.8 716 52.8 716.2 52.9 716.4L57.3 722.4 51.8 723C51.3 723.1 50.7 723.6 50.8 724.2 50.9 724.9 51.6 725.3 52 725.2L58.9 724.5 62.8 729.7 49.3 731.1C48.6 731.2 48.2 731.9 48.3 732.5S48.9 733.6 49.5 733.5L64.3 732 67.5 736.3 61.9 748.8 56.1 749.4 47.7 737.7C47.3 737.3 46.6 737.2 45.9 737.5 45.7 737.7 45.6 738.2 45.6 738.6 45.6 738.9 45.7 739.1 45.9 739.3L53.5 749.6 47.1 750.3 43.2 745.1C42.9 744.7 42.2 744.6 41.6 744.9 41.2 745.4 41 746 41.3 746.5L44.4 750.6 37.3 751.4C36.9 751.4 36.3 752.1 36.4 752.6 36.4 753.2 37.2 753.8 37.6 753.8L44.7 753 42.5 757.5C42.5 757.7 42.5 758 42.5 758.2 42.6 758.6 42.8 759 43.1 759.2 43.8 759.4 44.4 759.1 44.8 758.6L47.3 752.8 53.7 752.1 48.5 763.8C48.1 764.5 48.4 765.2 48.9 765.3 49.6 765.7 50.2 765.4 50.6 764.9L56.4 751.8 62.1 751.2 70.2 762.2 68.1 767.1 53.3 768.7C52.6 768.7 52.2 769.2 52.3 769.9 52.3 770.5 52.8 770.9 53.5 770.9L67 769.4 64.2 775.3 57.4 776C56.9 776.1 56.3 776.8 56.4 777.5 56.5 778.2 57.2 778.5 57.6 778.5L63.2 777.9 60.1 784.7C60.1 784.9 60.1 784.9 60.1 785.1 60.2 785.6 60.4 786 60.7 786.2 61.4 786.4 62 786.1 62.2 785.6ZM64.8 750.9L64 749.7 64.5 748.5 69 738.4 69.6 737.2 70.9 737.1 81.7 735.9 83.1 735.8 83.8 736.8 90.4 745.7 91.2 746.8 90.6 748.2 86.1 758 85.6 759.4 84.2 759.6 73.4 760.7 72.1 760.9 71.3 759.6 64.8 750.9Z" fill="rgba(51, 121, 194, 0.58)"></path></g><defs><mask id="SvgjsMask1014"><rect width="200" height="1000" fill="#ffffff"></rect></mask><filter id="SvgjsFilter1015"><feGaussianBlur stdDeviation="1"></feGaussianBlur></filter></defs></svg>