<svg xmlns="http://www.w3.org/2000/svg" version="1.1" xmlns:xlink="http://www.w3.org/1999/xlink" xmlns:svgjs="http://svgjs.com/svgjs" width="1440" height="100" preserveAspectRatio="none" viewBox="0 0 1440 100"><g mask="url(&quot;#SvgjsMask1003&quot;)" fill="none"><rect width="1440" height="100" x="0" y="0" fill="#0e2a47"></rect><g transform="translate(0, 0)" stroke-linecap="round"><path d="M260 39.28 L260 60.72" stroke-width="15" stroke="#3a7cc3"></path><path d="M280 39.84 L280 60.16" stroke-width="15" stroke="#dd1133"></path><path d="M300 27.07 L300 72.92" stroke-width="15" stroke="#dd1133"></path><path d="M320 34.58 L320 65.42" stroke-width="15" stroke="#3a7cc3"></path><path d="M340 37.57 L340 62.43" stroke-width="15" stroke="#3a7cc3"></path><path d="M360 36.97 L360 63.03" stroke-width="15" stroke="#3a7cc3"></path><path d="M380 46.15 L380 53.85" stroke-width="15" stroke="#3a7cc3"></path><path d="M400 34.99 L400 65.01" stroke-width="15" stroke="#dd1133"></path><path d="M420 27.79 L420 72.22" stroke-width="15" stroke="#3a7cc3"></path><path d="M440 37.95 L440 62.05" stroke-width="15" stroke="#3a7cc3"></path><path d="M460 35.86 L460 64.14" stroke-width="15" stroke="#3a7cc3"></path><path d="M480 44.25 L480 55.75" stroke-width="15" stroke="#dd1133"></path><path d="M500 40.66 L500 59.34" stroke-width="15" stroke="#dd1133"></path><path d="M520 31.86 L520 68.14" stroke-width="15" stroke="#dd1133"></path><path d="M540 36.63 L540 63.38" stroke-width="15" stroke="#dd1133"></path><path d="M560 37.12 L560 62.88" stroke-width="15" stroke="#dd1133"></path><path d="M580 39.58 L580 60.42" stroke-width="15" stroke="#dd1133"></path><path d="M600 33.25 L600 66.75" stroke-width="15" stroke="#3a7cc3"></path><path d="M620 37.63 L620 62.37" stroke-width="15" stroke="#dd1133"></path><path d="M640 40.22 L640 59.78" stroke-width="15" stroke="#3a7cc3"></path><path d="M660 31.61 L660 68.39" stroke-width="15" stroke="#dd1133"></path><path d="M680 32.36 L680 67.64" stroke-width="15" stroke="#dd1133"></path><path d="M700 29.19 L700 70.81" stroke-width="15" stroke="#3a7cc3"></path><path d="M720 33.25 L720 66.75" stroke-width="15" stroke="#3a7cc3"></path><path d="M740 42.18 L740 57.82" stroke-width="15" stroke="#3a7cc3"></path><path d="M760 31.3 L760 68.7" stroke-width="15" stroke="#dd1133"></path><path d="M780 27.01 L780 72.99" stroke-width="15" stroke="#3a7cc3"></path><path d="M800 43.09 L800 56.91" stroke-width="15" stroke="#dd1133"></path><path d="M820 31.16 L820 68.84" stroke-width="15" stroke="#3a7cc3"></path><path d="M840 40.17 L840 59.83" stroke-width="15" stroke="#dd1133"></path><path d="M860 35.8 L860 64.2" stroke-width="15" stroke="#3a7cc3"></path><path d="M880 41.98 L880 58.02" stroke-width="15" stroke="#dd1133"></path><path d="M900 33.83 L900 66.17" stroke-width="15" stroke="#dd1133"></path><path d="M920 28.73 L920 71.27" stroke-width="15" stroke="#dd1133"></path><path d="M940 36.3 L940 63.7" stroke-width="15" stroke="#3a7cc3"></path><path d="M960 38.57 L960 61.43" stroke-width="15" stroke="#3a7cc3"></path><path d="M980 46.49 L980 53.51" stroke-width="15" stroke="#dd1133"></path><path d="M1000 28.18 L1000 71.82" stroke-width="15" stroke="#dd1133"></path><path d="M1020 28.93 L1020 71.06" stroke-width="15" stroke="#3a7cc3"></path><path d="M1040 32.5 L1040 67.5" stroke-width="15" stroke="#3a7cc3"></path><path d="M1060 32.21 L1060 67.79" stroke-width="15" stroke="#dd1133"></path><path d="M1080 38.9 L1080 61.1" stroke-width="15" stroke="#3a7cc3"></path><path d="M1100 32.47 L1100 67.53" stroke-width="15" stroke="#dd1133"></path><path d="M1120 34.27 L1120 65.72" stroke-width="15" stroke="#3a7cc3"></path><path d="M1140 35.39 L1140 64.61" stroke-width="15" stroke="#3a7cc3"></path><path d="M1160 31.85 L1160 68.15" stroke-width="15" stroke="#dd1133"></path><path d="M1180 27.16 L1180 72.84" stroke-width="15" stroke="#dd1133"></path></g></g><defs><mask id="SvgjsMask1003"><rect width="1440" height="100" fill="#ffffff"></rect></mask></defs></svg>