<svg xmlns="http://www.w3.org/2000/svg" version="1.1" xmlns:xlink="http://www.w3.org/1999/xlink" xmlns:svgjs="http://svgjs.com/svgjs" width="2000" height="2000" preserveAspectRatio="none" viewBox="0 0 2000 2000"><g clip-path="url(&quot;#SvgjsClipPath1127&quot;)" fill="none"><rect width="2000" height="2000" x="0" y="0" fill="#0e2a47"></rect><circle r="333.335" cx="-149.75" cy="50.72" stroke="#365aa3" stroke-opacity="0.25" stroke-width="2"></circle><circle r="407.505" cx="115.53" cy="65.85" stroke="#365aa3" stroke-opacity="0.25" stroke-width="2"></circle><circle r="231.215" cx="963.61" cy="679.19" stroke="#365aa3" stroke-opacity="0.25" stroke-width="2"></circle><circle r="446.325" cx="302.83" cy="1581.12" stroke="#365aa3" stroke-opacity="0.25" stroke-width="2"></circle><circle r="440.34" cx="808.48" cy="1711.19" stroke="#365aa3" stroke-opacity="0.25" stroke-width="2"></circle><circle r="472.695" cx="1127.28" cy="676.98" stroke="#365aa3" stroke-opacity="0.25" stroke-width="2"></circle><circle r="318.45" cx="733.52" cy="1603.48" stroke="#365aa3" stroke-opacity="0.25" stroke-width="2"></circle><circle r="313.83" cx="1937.66" cy="509.51" stroke="#365aa3" stroke-opacity="0.25" stroke-width="2"></circle><circle r="293.21" cx="652.28" cy="1062.38" stroke="#365aa3" stroke-opacity="0.25" stroke-width="2"></circle><circle r="382.385" cx="1496.64" cy="1489.75" stroke="#365aa3" stroke-opacity="0.25" stroke-width="2"></circle><circle r="542.04" cx="221.04" cy="205.83" stroke="#365aa3" stroke-opacity="0.25" stroke-width="2"></circle><circle r="445.345" cx="926.02" cy="888.17" stroke="#365aa3" stroke-opacity="0.25" stroke-width="2"></circle><circle r="487.68" cx="953.13" cy="1319.26" stroke="#365aa3" stroke-opacity="0.25" stroke-width="2"></circle><circle r="178.14" cx="777.56" cy="1903.53" stroke="#365aa3" stroke-opacity="0.25" stroke-width="2"></circle><circle r="592.12" cx="1345.78" cy="769.49" stroke="#365aa3" stroke-opacity="0.25" stroke-width="2"></circle><circle r="524.19" cx="1134.85" cy="510.27" stroke="#365aa3" stroke-opacity="0.25" stroke-width="2"></circle><circle r="444.065" cx="1337.62" cy="659.09" stroke="#365aa3" stroke-opacity="0.25" stroke-width="2"></circle><circle r="240.245" cx="1464.49" cy="392.44" stroke="#365aa3" stroke-opacity="0.25" stroke-width="2"></circle><circle r="648.525" cx="1555.68" cy="789.08" stroke="#365aa3" stroke-opacity="0.25" stroke-width="2"></circle><circle r="604.365" cx="1481.61" cy="1784.25" stroke="#365aa3" stroke-opacity="0.25" stroke-width="2"></circle><circle r="358.635" cx="1023.06" cy="1005.11" stroke="#365aa3" stroke-opacity="0.25" stroke-width="2"></circle><circle r="491.1" cx="283.48" cy="384.74" stroke="#365aa3" stroke-opacity="0.25" stroke-width="2"></circle><circle r="490.315" cx="1439.72" cy="1705.02" stroke="#365aa3" stroke-opacity="0.25" stroke-width="2"></circle><circle r="540.745" cx="1832.92" cy="612.03" stroke="#365aa3" stroke-opacity="0.25" stroke-width="2"></circle><circle r="385.69" cx="1360.71" cy="478.91" stroke="#365aa3" stroke-opacity="0.25" stroke-width="2"></circle><circle r="576.935" cx="1093.88" cy="1940.52" stroke="#365aa3" stroke-opacity="0.25" stroke-width="2"></circle><circle r="401.97" cx="1607.43" cy="584.8" stroke="#365aa3" stroke-opacity="0.25" stroke-width="2"></circle><circle r="605.835" cx="1193.95" cy="1954.52" stroke="#365aa3" stroke-opacity="0.25" stroke-width="2"></circle><circle r="261.12" cx="543.12" cy="874.29" stroke="#365aa3" stroke-opacity="0.25" stroke-width="2"></circle><circle r="629.77" cx="1763.2" cy="29.73" stroke="#365aa3" stroke-opacity="0.25" stroke-width="2"></circle><circle r="234.845" cx="1494.55" cy="1473.97" stroke="#365aa3" stroke-opacity="0.25" stroke-width="2"></circle><circle r="430.315" cx="423.08" cy="67.11" stroke="#365aa3" stroke-opacity="0.25" stroke-width="2"></circle><circle r="511.285" cx="1887.25" cy="270.52" stroke="#365aa3" stroke-opacity="0.25" stroke-width="2"></circle><circle r="499.925" cx="1336.78" cy="1879.7" stroke="#365aa3" stroke-opacity="0.25" stroke-width="2"></circle><circle r="199.975" cx="205.58" cy="686.49" stroke="#365aa3" stroke-opacity="0.25" stroke-width="2"></circle><circle r="525.65" cx="335.8" cy="692.53" stroke="#365aa3" stroke-opacity="0.25" stroke-width="2"></circle><circle r="348.8" cx="1896.96" cy="1717.69" stroke="#365aa3" stroke-opacity="0.25" stroke-width="2"></circle><circle r="281.01" cx="133.95" cy="383.44" stroke="#365aa3" stroke-opacity="0.25" stroke-width="2"></circle><circle r="212.355" cx="39.58" cy="622.31" stroke="#365aa3" stroke-opacity="0.25" stroke-width="2"></circle><circle r="259.755" cx="1200.56" cy="1536.98" stroke="#365aa3" stroke-opacity="0.25" stroke-width="2"></circle><circle r="604.655" cx="785.98" cy="563.3" stroke="#365aa3" stroke-opacity="0.25" stroke-width="2"></circle><circle r="331.17" cx="358.43" cy="1021.48" stroke="#365aa3" stroke-opacity="0.25" stroke-width="2"></circle><circle r="318.05" cx="1718.14" cy="1765.51" stroke="#365aa3" stroke-opacity="0.25" stroke-width="2"></circle><circle r="513.91" cx="1266.95" cy="524.64" stroke="#365aa3" stroke-opacity="0.25" stroke-width="2"></circle><circle r="201.135" cx="372.39" cy="1589.47" stroke="#365aa3" stroke-opacity="0.25" stroke-width="2"></circle><circle r="561.95" cx="834.26" cy="80.54" stroke="#365aa3" stroke-opacity="0.25" stroke-width="2"></circle><circle r="548.62" cx="574.41" cy="461.15" stroke="#365aa3" stroke-opacity="0.25" stroke-width="2"></circle><circle r="666.055" cx="1417.4" cy="1251.31" stroke="#365aa3" stroke-opacity="0.25" stroke-width="2"></circle><circle r="308.06" cx="1810.79" cy="1891.23" stroke="#365aa3" stroke-opacity="0.25" stroke-width="2"></circle><circle r="629.015" cx="1770.23" cy="389.36" stroke="#365aa3" stroke-opacity="0.25" stroke-width="2"></circle><circle r="360.825" cx="621.51" cy="1195.08" stroke="#365aa3" stroke-opacity="0.25" stroke-width="2"></circle><circle r="375.31" cx="1844.32" cy="360.46" stroke="#365aa3" stroke-opacity="0.25" stroke-width="2"></circle><circle r="347.45" cx="396.9" cy="34.25" stroke="#365aa3" stroke-opacity="0.25" stroke-width="2"></circle><circle r="211.33" cx="659.31" cy="1818.35" stroke="#365aa3" stroke-opacity="0.25" stroke-width="2"></circle><circle r="376.18" cx="1205.13" cy="799.38" stroke="#365aa3" stroke-opacity="0.25" stroke-width="2"></circle><circle r="588.195" cx="1050.74" cy="874.47" stroke="#365aa3" stroke-opacity="0.25" stroke-width="2"></circle><circle r="488.795" cx="1631.2" cy="1354.27" stroke="#365aa3" stroke-opacity="0.25" stroke-width="2"></circle><circle r="461.6" cx="1727.77" cy="1289.43" stroke="#365aa3" stroke-opacity="0.25" stroke-width="2"></circle><circle r="262.245" cx="1949.5" cy="1685.97" stroke="#365aa3" stroke-opacity="0.25" stroke-width="2"></circle><circle r="638.445" cx="995.28" cy="1060.87" stroke="#365aa3" stroke-opacity="0.25" stroke-width="2"></circle><circle r="264.96" cx="311.94" cy="825.54" stroke="#365aa3" stroke-opacity="0.25" stroke-width="2"></circle><circle r="574.37" cx="1459.21" cy="1928.35" stroke="#365aa3" stroke-opacity="0.25" stroke-width="2"></circle><circle r="508.295" cx="1032.36" cy="873.11" stroke="#365aa3" stroke-opacity="0.25" stroke-width="2"></circle><circle r="268.22" cx="1767.86" cy="1192.63" stroke="#365aa3" stroke-opacity="0.25" stroke-width="2"></circle><circle r="491.485" cx="858.25" cy="1440.57" stroke="#365aa3" stroke-opacity="0.25" stroke-width="2"></circle><circle r="184.125" cx="1368.3" cy="1078.19" stroke="#365aa3" stroke-opacity="0.25" stroke-width="2"></circle><circle r="614.615" cx="154.06" cy="1239.17" stroke="#365aa3" stroke-opacity="0.25" stroke-width="2"></circle><circle r="376.06" cx="1596.82" cy="1762.55" stroke="#365aa3" stroke-opacity="0.25" stroke-width="2"></circle><circle r="442.36" cx="1407.51" cy="1095.32" stroke="#365aa3" stroke-opacity="0.25" stroke-width="2"></circle><circle r="448.29" cx="1836.2" cy="1490.36" stroke="#365aa3" stroke-opacity="0.25" stroke-width="2"></circle><circle r="248.81" cx="298.45" cy="389.15" stroke="#365aa3" stroke-opacity="0.25" stroke-width="2"></circle><circle r="529.925" cx="894.88" cy="365.68" stroke="#365aa3" stroke-opacity="0.25" stroke-width="2"></circle><circle r="198.64" cx="1711.53" cy="1297.21" stroke="#365aa3" stroke-opacity="0.25" stroke-width="2"></circle><circle r="515.025" cx="1120.57" cy="1002.04" stroke="#365aa3" stroke-opacity="0.25" stroke-width="2"></circle><circle r="494.88" cx="1328.84" cy="851.5" stroke="#365aa3" stroke-opacity="0.25" stroke-width="2"></circle><circle r="443.99" cx="1606.07" cy="1232.59" stroke="#365aa3" stroke-opacity="0.25" stroke-width="2"></circle><circle r="451.895" cx="585.33" cy="1313.19" stroke="#365aa3" stroke-opacity="0.25" stroke-width="2"></circle><circle r="324.235" cx="521.81" cy="393.95" stroke="#365aa3" stroke-opacity="0.25" stroke-width="2"></circle><circle r="267.065" cx="931.64" cy="1643.15" stroke="#365aa3" stroke-opacity="0.25" stroke-width="2"></circle><circle r="486.49" cx="433.44" cy="1714.9" stroke="#365aa3" stroke-opacity="0.25" stroke-width="2"></circle><circle r="556.915" cx="1633.37" cy="950.78" stroke="#365aa3" stroke-opacity="0.25" stroke-width="2"></circle><circle r="519.1" cx="562.58" cy="1482.66" stroke="#365aa3" stroke-opacity="0.25" stroke-width="2"></circle><circle r="417.795" cx="1565.47" cy="443.76" stroke="#365aa3" stroke-opacity="0.25" stroke-width="2"></circle><circle r="206.35" cx="1461.84" cy="1247.04" stroke="#365aa3" stroke-opacity="0.25" stroke-width="2"></circle><circle r="319.445" cx="160.76" cy="1887.58" stroke="#365aa3" stroke-opacity="0.25" stroke-width="2"></circle><circle r="361.435" cx="958.99" cy="1022.39" stroke="#365aa3" stroke-opacity="0.25" stroke-width="2"></circle><circle r="312.095" cx="953.36" cy="597.13" stroke="#365aa3" stroke-opacity="0.25" stroke-width="2"></circle><circle r="282.9" cx="369.84" cy="1113.45" stroke="#365aa3" stroke-opacity="0.25" stroke-width="2"></circle><circle r="323.505" cx="675.49" cy="233.14" stroke="#365aa3" stroke-opacity="0.25" stroke-width="2"></circle><circle r="343.53" cx="819.64" cy="889.15" stroke="#365aa3" stroke-opacity="0.25" stroke-width="2"></circle><circle r="316.88" cx="1752.55" cy="948.7" stroke="#365aa3" stroke-opacity="0.25" stroke-width="2"></circle><circle r="241.325" cx="1604.45" cy="1560.39" stroke="#365aa3" stroke-opacity="0.25" stroke-width="2"></circle><circle r="644.945" cx="1635.12" cy="1359.85" stroke="#365aa3" stroke-opacity="0.25" stroke-width="2"></circle><circle r="365.81" cx="1671.35" cy="1436.29" stroke="#365aa3" stroke-opacity="0.25" stroke-width="2"></circle><circle r="665.64" cx="1193.7" cy="1691.27" stroke="#365aa3" stroke-opacity="0.25" stroke-width="2"></circle><circle r="592.415" cx="282.7" cy="480.08" stroke="#365aa3" stroke-opacity="0.25" stroke-width="2"></circle><circle r="499.805" cx="114.68" cy="171.6" stroke="#365aa3" stroke-opacity="0.25" stroke-width="2"></circle><circle r="325.14" cx="40.11" cy="220.86" stroke="#365aa3" stroke-opacity="0.25" stroke-width="2"></circle><circle r="170.13" cx="258.68" cy="959.7" stroke="#365aa3" stroke-opacity="0.25" stroke-width="2"></circle><circle r="568.63" cx="1469.14" cy="704.61" stroke="#365aa3" stroke-opacity="0.25" stroke-width="2"></circle><circle r="256.585" cx="79.66" cy="1557.67" stroke="#365aa3" stroke-opacity="0.25" stroke-width="2"></circle><circle r="270.78" cx="1989.84" cy="554.25" stroke="#365aa3" stroke-opacity="0.25" stroke-width="2"></circle><circle r="354.225" cx="905.69" cy="1140.22" stroke="#365aa3" stroke-opacity="0.25" stroke-width="2"></circle><circle r="432.24" cx="709.36" cy="1429.39" stroke="#365aa3" stroke-opacity="0.25" stroke-width="2"></circle><circle r="498.57" cx="639.27" cy="929.87" stroke="#365aa3" stroke-opacity="0.25" stroke-width="2"></circle><circle r="335.065" cx="574.93" cy="34.96" stroke="#365aa3" stroke-opacity="0.25" stroke-width="2"></circle><circle r="362.41" cx="205.83" cy="1385.14" stroke="#365aa3" stroke-opacity="0.25" stroke-width="2"></circle><circle r="506.36" cx="1580.4" cy="857.81" stroke="#365aa3" stroke-opacity="0.25" stroke-width="2"></circle><circle r="605.535" cx="1604.03" cy="1617.32" stroke="#365aa3" stroke-opacity="0.25" stroke-width="2"></circle><circle r="511.69" cx="1792.98" cy="1847.96" stroke="#365aa3" stroke-opacity="0.25" stroke-width="2"></circle><circle r="483.09" cx="857.46" cy="910.87" stroke="#365aa3" stroke-opacity="0.25" stroke-width="2"></circle><circle r="459.665" cx="18.3" cy="1767.84" stroke="#365aa3" stroke-opacity="0.25" stroke-width="2"></circle><circle r="294.955" cx="1261.43" cy="1100.26" stroke="#365aa3" stroke-opacity="0.25" stroke-width="2"></circle><circle r="464.42" cx="69.01" cy="1176.51" stroke="#365aa3" stroke-opacity="0.25" stroke-width="2"></circle><circle r="518.18" cx="1842.74" cy="826.44" stroke="#365aa3" stroke-opacity="0.25" stroke-width="2"></circle><circle r="369.755" cx="501.96" cy="1139.52" stroke="#365aa3" stroke-opacity="0.25" stroke-width="2"></circle><circle r="561.085" cx="1193.52" cy="1694.13" stroke="#365aa3" stroke-opacity="0.25" stroke-width="2"></circle></g><defs><clipPath id="SvgjsClipPath1127"><rect width="2000" height="2000" x="0" y="0"></rect></clipPath></defs></svg>